<?xml version="1.0" encoding="UTF-8" standalone="no"?>
<!-- Created with Inkscape (http://www.inkscape.org/) -->

<svg
   width="210mm"
   height="297mm"
   viewBox="0 0 210 297"
   version="1.1"
   id="svg1"
   xml:space="preserve"
   xmlns="http://www.w3.org/2000/svg"
   xmlns:svg="http://www.w3.org/2000/svg"><defs
     id="defs1" /><g
     id="layer1"><path
       style="fill:#000000"
       d="m 20.073862,317.6473 c 0,-0.99156 1.43263,-12.2176 1.86398,-14.60604 0.30222,-1.67349 0.77268,-4.29287 1.04547,-5.82084 0.27278,-1.52797 0.73991,-3.90921 1.03807,-5.29166 0.81556,-3.78144 0.80133,-3.86313 -0.70637,-4.05487 -2.50349,-0.31838 -12.38394,-1.76862 -12.96458,-1.90293 -0.4275697,-0.0989 -0.5953197,-0.32966 -0.5953197,-0.81895 0,-0.65793 0.043,-0.67597 1.2567697,-0.52729 2.10229,0.25752 7.44166,0.89558 10.44592,1.24831 1.56153,0.18333 2.90754,0.26495 2.99112,0.18136 0.1748,-0.1748 -0.90842,-9.27115 -2.51532,-21.12247 -0.41814,-3.08389 -2.30901,-14.71066 -2.77387,-17.05629 -0.0577,-0.29104 -0.11372,-0.63921 -0.12454,-0.77372 -0.0784,-0.97567 -3.08772,3.45792 -3.84748,5.66851 -0.22507,0.65485 -0.51882,1.42875 -0.65279,1.7198 -0.67705,1.4709 -3.67827,8.3139 -3.97442,9.06198 -0.9935797,2.5098 -1.1074297,-1.05079 -0.13005,-4.06727 0.37144,-1.14636 1.32534,-3.4413 2.11978,-5.09986 0.79444,-1.65855 1.51594,-3.46275 1.60334,-4.00932 0.13879,-0.86789 0.0714,-1.05112 -0.53227,-1.44664 -0.96847,-0.63456 -0.87005,-0.82474 0.52584,-1.01607 1.51401,-0.20752 3.99088,-1.5049 5.14361,-2.69422 0.72532,-0.74834 0.87131,-1.10015 0.87131,-2.09979 0,-1.54061 -0.8251,-2.51944 -2.12373,-2.51944 -1.00196,0 -0.99768,0.29336 -0.0483,-3.30729 0.30696,-1.16417 0.6335,-3.23176 0.72564,-4.59465 l 0.16753,-2.47799 0.71954,1.33665 c 0.39575,0.73516 0.96431,2.26697 1.26346,3.40403 0.58138,2.20979 0.64087,2.83005 1.0738,11.1955 0.25503,4.92797 0.67918,8.26627 1.98339,15.61042 0.41012,2.30945 1.18028,7.84977 1.83897,13.22916 0.20492,1.67349 0.60414,4.76912 0.88716,6.87917 0.28302,2.11005 0.65522,5.4438 0.82711,7.40833 0.63426,7.24907 0.7633,8.05094 1.78828,11.1125 1.18816,3.54901 1.7524,4.69561 3.23146,6.56677 1.14911,1.45373 1.7492,1.77079 1.46762,0.77542 -0.26458,-0.93531 -2.05956,-4.54272 -2.36771,-4.75845 -0.186,-0.13021 -0.17519,-0.19572 0.0328,-0.19843 0.55272,-0.007 1.94735,1.35724 2.50549,2.45129 0.88655,1.73777 2.34345,5.97659 2.34345,6.8182 0,1.11657 -0.48205,0.98354 -2.06978,-0.57119 -1.61114,-1.57766 -3.23097,-4.20512 -3.97852,-6.4534 -0.47064,-1.41547 -0.93147,-2.57781 -1.96684,-4.96094 -0.17387,-0.40018 -0.38292,-0.7276 -0.46457,-0.7276 -0.22605,0 -0.75904,7.43261 -0.95341,13.29531 l -0.17324,5.22552 h -0.72438 c -1.02755,0 -1.11602,-0.61245 -0.91648,-6.34485 0.3843,-11.04042 0.28554,-20.98524 -0.18924,-19.05515 -0.474,1.92694 -3.05921,23.9429 -2.94374,25.06927 0.0219,0.2137 -0.33019,0.33073 -0.99503,0.33073 -0.56591,0 -1.02893,-0.0948 -1.02893,-0.21062 z m 15.875,-0.0383 c 0,-0.13693 0.11907,-0.32255 0.26459,-0.41249 0.14552,-0.0899 0.26458,0.0221 0.26458,0.24897 0,0.22687 -0.11906,0.41249 -0.26458,0.41249 -0.14552,0 -0.26459,-0.11203 -0.26459,-0.24897 z m 5.60996,-0.47863 c -0.15129,-0.40018 -0.52014,-1.48663 -0.81966,-2.41432 -0.29953,-0.92769 -0.85407,-2.09244 -1.23231,-2.58834 -0.649,-0.85088 -0.67117,-0.97871 -0.39403,-2.27099 0.26291,-1.22591 0.2383,-1.44425 -0.23494,-2.08434 -0.99678,-1.34822 -2.11109,-3.64105 -3.71612,-7.64641 -0.88368,-2.20522 -1.82403,-4.44571 -2.08967,-4.97885 -0.26563,-0.53315 -0.69604,-2.10045 -0.95645,-3.4829 -0.26041,-1.38244 -0.75705,-3.5851 -1.10365,-4.89479 -1.24428,-4.70178 -3.02742,-13.18057 -2.94229,-13.99054 0.0677,-0.64386 0.33068,-0.0673 1.19213,2.61346 1.25774,3.91392 2.91508,9.92297 3.75816,13.62604 0.84798,3.72457 3.58155,11.61739 5.20797,15.03732 0.78438,1.64932 1.50185,3.3162 1.59438,3.70416 0.0925,0.38797 0.25122,0.82446 0.35264,0.96998 0.10142,0.14552 0.39411,1.09802 0.65043,2.11666 0.53121,2.11112 1.69711,5.4332 2.03821,5.80761 0.47334,0.51956 0.24576,1.20385 -0.40037,1.20385 -0.4435,0 -0.71059,-0.21487 -0.90443,-0.7276 z m 2.72652,0.39687 c -0.0625,-0.1819 -0.70278,-1.93807 -1.42291,-3.9026 -1.31729,-3.59359 -2.68023,-8.32587 -2.68023,-9.30605 0,-0.29833 0.14064,-0.48075 0.32362,-0.41976 0.5559,0.1853 1.68969,2.84207 2.70594,6.34069 0.53706,1.84897 1.32528,4.26757 1.75159,5.37466 0.4263,1.1071 0.7751,2.06486 0.7751,2.12835 0,0.28138 -1.3513,0.0812 -1.45311,-0.21529 z m 10.18436,-0.563 c 0,-1.32063 -0.61438,-2.56692 -2.19009,-4.44266 -3.082,-3.66883 -5.0602,-6.52461 -6.54879,-9.45395 -0.6898,-1.35744 -0.84726,-2.01967 -0.96031,-4.0389 -0.11252,-2.00954 -0.26814,-2.66878 -0.9265,-3.92474 -0.4352,-0.83023 -0.85912,-2.01541 -0.94205,-2.63373 -0.0984,-0.73385 -0.85595,-2.33221 -2.18159,-4.60315 -3.02636,-5.18443 -4.51292,-8.51561 -4.09901,-9.18532 0.0877,-0.14196 0.37878,0.0123 0.64677,0.34289 0.268,0.33055 0.56745,0.52115 0.66545,0.42354 0.39203,-0.39043 -1.13993,-5.39701 -3.1436,-10.27358 -1.20173,-2.9248 -3.84824,-12.60743 -4.04976,-14.81667 -0.0863,-0.94588 -0.0959,-1.66026 -0.0214,-1.5875 0.16475,0.16093 2.28881,6.23682 3.51481,10.05417 1.45108,4.51814 1.88272,5.50663 3.39272,7.76956 0.78991,1.18377 1.52433,2.44997 1.63204,2.81377 0.24372,0.82319 0.18054,0.75964 -1.16157,-1.16834 -1.68871,-2.42589 -1.28444,-1.13817 0.48727,1.55209 2.00058,3.03779 3.15035,5.81208 3.45951,8.3475 0.13309,1.09141 0.41036,2.60024 0.61616,3.35296 0.20581,0.75272 0.45869,2.3231 0.56196,3.48973 0.14671,1.65745 0.33122,2.31263 0.844,2.99705 0.84054,1.12187 1.93735,3.25521 1.93735,3.7682 0,0.218 -0.23812,0.5238 -0.52917,0.67956 -0.65956,0.35299 -0.66452,0.6294 -0.0249,1.38705 0.27735,0.32853 1.11154,1.37123 1.85375,2.31712 1.69631,2.16182 6.6746,6.70065 8.14137,7.42269 0.96949,0.47725 1.24747,0.50688 2.24229,0.239 2.80565,-0.75548 4.17002,-1.75465 8.82186,-6.46054 5.83513,-5.90293 6.21712,-6.1111 11.12026,-6.06005 4.0305,0.042 5.92112,0.44977 8.98807,1.93876 6.22268,3.02106 9.863312,8.61864 11.638202,17.89408 0.22014,1.15043 0.40027,2.24051 0.4003,2.42241 4e-5,0.25671 -1.65698,0.33073 -7.403252,0.33073 h -7.40329 l -0.1313,-0.59531 c -0.0722,-0.32742 -0.26186,-1.35899 -0.42143,-2.29238 -0.56822,-3.32364 -1.77535,-5.05682 -3.51255,-5.04325 -1.96489,0.0154 -5.20773,3.6379 -5.80481,6.48449 l -0.3034,1.44645 h -9.60267 -9.60267 z m -13.09604,-35.68496 c -0.28091,-1.39231 -0.97786,-3.10886 -1.26225,-3.10886 -0.34943,0 -0.10609,1.71865 0.42144,2.97657 0.52343,1.24812 1.08373,1.33628 0.84081,0.13229 z m 58.075212,36.47558 c 0,-0.0567 0.18818,-1.09848 0.41819,-2.3151 1.019826,-5.39441 4.017526,-12.42452 6.706636,-15.72819 2.30945,-2.83724 5.53671,-4.32251 9.41162,-4.33145 2.72229,-0.006 4.55563,0.4121 6.93188,1.58193 3.05248,1.50273 4.00701,2.65317 5.34379,6.44055 0.81224,2.30125 2.29845,9.62181 2.59234,12.76895 l 0.15747,1.68637 h -5.81288 -5.81287 l -0.55832,-2.76753 c -0.61471,-3.04707 -1.3967,-5.08908 -2.04402,-5.33747 -0.98398,-0.37759 -2.33655,2.16052 -2.65056,4.97379 -0.0867,0.77628 -0.21654,1.79837 -0.28865,2.27132 l -0.13111,0.85989 h -7.13176 c -3.92247,0 -7.131756,-0.0464 -7.131756,-0.10306 z m 42.329726,-0.21009 c -0.005,-0.47016 2.97581,-14.61553 4.50569,-21.38268 0.69847,-3.08956 1.20773,-6.89879 1.71558,-12.83229 0.23665,-2.7649 0.71579,-6.94934 1.06477,-9.29876 0.55704,-3.75016 0.74904,-4.48005 1.57269,-5.9785 1.07735,-1.95999 1.94583,-4.33467 2.94322,-8.04759 0.63859,-2.37726 0.6858,-2.88689 0.54153,-5.84546 -0.0869,-1.78263 -0.11456,-3.24115 -0.0614,-3.24115 0.0531,0 0.29439,0.41672 0.53608,0.92604 0.24169,0.50933 0.53625,0.92604 0.65459,0.92604 0.11833,0 0.28547,-0.62507 0.37141,-1.38906 0.31811,-2.82786 1.51175,-11.95364 1.78596,-13.65429 1.57861,-9.79045 3.06939,-15.3546 6.14201,-22.92435 1.45315,-3.58001 3.89605,-8.17914 3.89605,-7.33492 0,0.17791 0.11906,0.32346 0.26459,0.32346 0.14552,0 0.26458,-0.12696 0.26458,-0.28213 0,-0.85078 7.64712,-9.88013 8.03921,-9.49231 0.20264,0.20043 -2.12061,3.35288 -4.13969,5.61719 -0.90781,1.01807 -1.92698,2.16157 -2.26482,2.54112 -0.33784,0.37955 -0.93248,1.10681 -1.32141,1.61613 -0.38894,0.50932 -0.77011,0.98557 -0.84706,1.05833 -0.94091,0.88968 -3.93136,8.59684 -4.87639,12.56771 -0.38096,1.60073 -1.11534,4.19046 -1.63196,5.75495 -0.51662,1.56449 -0.87929,2.99324 -0.80594,3.175 0.0796,0.19711 0.14179,0.14362 0.15425,-0.13255 0.0115,-0.25466 0.17743,-0.46302 0.36876,-0.46302 0.19133,0 0.56024,-0.44535 0.81981,-0.98966 0.25956,-0.54431 1.51582,-2.59814 2.79168,-4.56406 1.27586,-1.96593 2.89109,-4.52691 3.58939,-5.69108 2.61841,-4.36527 6.06205,-8.85345 10.65784,-13.89062 1.58923,-1.74186 1.39883,-0.71326 -0.28107,1.51838 -0.76398,1.01491 -2.59034,3.43995 -4.05856,5.38898 -1.46823,1.94902 -2.95651,3.97335 -3.30729,4.49851 -2.76802,4.14399 -5.32547,7.82339 -6.60055,9.49621 -0.83191,1.09141 -1.70225,2.4011 -1.9341,2.91042 -0.56261,1.23594 -1.23106,3.88576 -1.23211,4.88423 -4.7e-4,0.44237 -0.16887,1.81634 -0.37422,3.05327 -0.20536,1.23693 -0.44756,4.50539 -0.53822,7.26325 l -0.16484,5.0143 0.7375,-1.04777 c 0.40562,-0.57627 1.21155,-1.76114 1.79095,-2.63304 1.09719,-1.65111 3.90913,-4.60459 5.95801,-6.2579 1.22611,-0.9894 4.21267,-2.86612 4.56297,-2.86733 0.10854,-3.7e-4 -0.82136,0.94542 -2.06644,2.10176 -3.20925,2.98053 -5.63958,5.99228 -9.29895,11.5236 -1.79253,2.7095 -1.8846,2.91684 -1.33369,3.00339 0.46799,0.0735 1.36694,-0.70927 4.29779,-3.74247 3.19052,-3.30194 5.20037,-5.15591 7.38736,-6.81443 0.46901,-0.35567 0.48485,-0.34497 0.21489,0.14518 -0.1603,0.29104 -0.62102,0.88635 -1.02381,1.32292 -0.4028,0.43656 -2.11046,2.28203 -3.79481,4.10104 -4.06059,4.38524 -5.07041,5.67415 -4.86496,6.20954 0.0991,0.25832 -0.061,0.67336 -0.39836,1.03245 l -0.56413,0.60048 0.65317,0.61362 c 0.56295,0.52886 0.91937,0.61195 2.58053,0.60155 1.06005,-0.007 2.03201,0.0526 2.1599,0.13164 0.57012,0.35236 -2.34512,1.08651 -6.3135,1.58994 -1.76457,0.22385 -2.23694,0.80791 -1.07982,1.33513 2.73472,1.24602 8.28453,1.54641 13.75656,0.74459 3.32268,-0.48688 4.12113,-0.52136 4.12113,-0.17795 0,0.33741 -2.40851,1.20912 -5.06653,1.83373 -2.09686,0.49274 -3.41156,0.66804 -7.36719,0.98227 -0.94496,0.0751 -1.82655,0.24494 -1.95911,0.3775 -0.34327,0.34327 1.24471,1.75098 2.4085,2.13507 0.63144,0.20839 1.92286,0.26831 3.76101,0.1745 3.83603,-0.19577 13.12648,-2.53919 24.04888,-6.06608 3.30986,-1.06877 3.42636,-0.85435 0.31402,0.57794 -0.47725,0.21963 -6.68551,2.18566 -8.73125,2.76501 -0.80036,0.22667 -3.12208,0.89244 -5.15937,1.4795 -7.1028,2.04673 -11.4344,2.57929 -14.90107,1.83206 -0.77403,-0.16683 -1.46429,-0.24638 -1.53391,-0.17675 -0.10708,0.10708 0.606,2.43009 2.37276,7.7297 0.52942,1.58806 1.50524,2.04478 4.3466,2.03436 2.63179,-0.01 4.62284,-0.31081 9.31874,-1.40948 4.4092,-1.03159 5.71693,-1.37129 8.96726,-2.32934 1.51226,-0.44574 3.83398,-1.05305 5.15938,-1.34956 1.3254,-0.29652 3.07247,-0.71279 3.88239,-0.92506 2.08004,-0.54516 2.89306,-0.50992 2.89306,0.12539 0,0.28124 -0.20836,0.57017 -0.46303,0.64208 -0.25466,0.0719 -2.01083,0.6112 -3.9026,1.19842 -1.89177,0.58722 -4.86833,1.47725 -6.61458,1.97785 -11.15804,3.19869 -15.51591,4.5858 -15.69861,4.99688 -0.0485,0.10914 -0.25687,0.19843 -0.46303,0.19843 -0.39133,0 -0.52064,0.42027 -0.17638,0.57327 0.44635,0.19838 2.18281,2.7236 2.18281,3.17432 0,0.66453 -0.1076,0.62619 -1.32216,-0.47108 -0.71185,-0.64312 -1.05909,-0.82384 -1.05909,-0.55122 0,0.22309 -0.11907,0.44531 -0.2646,0.49382 -0.5115,0.1705 0.83818,5.15967 2.7795,10.27464 0.5247,1.38245 1.16979,3.10886 1.43355,3.83646 0.96165,2.65278 7.72051,16.46754 8.99658,18.38854 1.12182,1.68881 1.63818,2.7911 1.41296,3.01631 -0.0873,0.0873 -0.77445,0.15869 -1.52705,0.15869 h -1.36837 l -1.47065,-3.10885 c -0.80885,-1.70987 -1.61869,-3.58511 -1.79962,-4.16719 -0.18094,-0.58208 -1.18811,-2.96333 -2.23816,-5.29166 -2.96647,-6.57772 -4.86237,-11.48854 -7.83316,-20.28969 l -2.74049,-8.11885 -1.52253,-0.65694 c -1.69349,-0.7307 -1.75165,-0.82389 -2.47691,-3.96895 -0.34464,-1.49453 -0.88522,-2.75776 -1.92482,-4.49792 -0.79507,-1.33086 -2.03716,-3.66621 -2.76021,-5.18967 -0.72305,-1.52346 -1.58821,-3.2033 -1.92257,-3.73297 -0.33437,-0.52967 -0.74071,-1.45609 -0.90298,-2.05871 -0.16227,-0.60263 -0.39082,-1.09568 -0.50788,-1.09568 -0.11707,0 -0.46722,1.55519 -0.77812,3.45597 -0.31089,1.90078 -0.96922,4.66898 -1.46295,6.15156 -1.89172,5.68052 -2.11586,6.7417 -4.78862,22.67164 -1.0865,6.47567 -2.2294,12.96458 -2.53977,14.41979 -0.31037,1.45521 -0.78112,3.71739 -1.0461,5.02708 -0.26498,1.30969 -0.73013,3.33375 -1.03367,4.49792 -0.30353,1.16416 -0.70185,2.9501 -0.88516,3.96875 -0.31059,1.72601 -0.38267,1.85778 -1.05886,1.9358 -0.46479,0.0536 -0.72688,-0.0415 -0.72919,-0.26458 z m 18.7872,-84.83429 c 0.63518,-2.64047 0.63397,-2.62871 0.21007,-2.03276 -0.48621,0.68355 -1.26659,2.78743 -1.26659,3.41468 0,0.90606 0.7385,-0.0599 1.05652,-1.38192 z m 35.45924,84.94901 c 0.003,-0.16344 2.89676,-1.45714 3.8332,-1.71351 0.14552,-0.0398 0.30047,0.17899 0.34433,0.48628 0.0592,0.41474 -0.15564,0.67041 -0.83373,0.99218 -0.91725,0.43527 -3.3499,0.60626 -3.3438,0.23505 z m -6.93677,-3.65734 c -0.37651,-1.15354 -0.75568,-2.51407 -0.8426,-3.02339 -0.13631,-0.79879 -0.0503,-0.7098 0.62566,0.64754 0.75929,1.52459 1.23463,3.47387 1.01084,4.14525 -0.0601,0.18038 -0.41738,-0.61585 -0.7939,-1.7694 z m -5.74675,-8.97652 c -0.6212,-1.59934 -1.0875,-4.62127 -0.59199,-3.83646 0.40162,0.6361 1.40946,4.47819 1.30443,4.97272 -0.0552,0.25976 -0.3575,-0.22241 -0.71244,-1.13626 z M 39.500112,300.35552 c -0.63811,-1.23397 -1.59368,-4.77694 -2.05867,-7.63301 -0.53402,-3.27997 -0.77926,-6.87917 -0.46874,-6.87917 0.34075,0 0.52444,0.56871 1.11059,3.43847 0.55444,2.71444 0.88009,4.02632 1.98228,7.98556 0.6811,2.44663 0.72563,3.9218 0.11838,3.9218 -0.13901,0 -0.44674,-0.37514 -0.68384,-0.83365 z m 94.212298,-0.82243 c -2.19122,-1.60385 -6.56273,-5.25121 -8.24247,-6.87709 -3.17717,-3.07529 -3.85315,-5.48186 -4.32898,-15.41162 -0.13946,-2.91041 -0.37319,-7.55385 -0.51939,-10.31875 -0.14621,-2.76489 -0.2669,-8.45436 -0.26822,-12.64325 l -0.002,-7.61618 1.25677,-0.51565 c 2.72562,-1.11833 7.07316,-3.85301 11.3074,-7.11257 1.16222,-0.89469 2.538,-1.74112 3.0573,-1.88095 0.94407,-0.25421 2.35222,-0.0232 2.99115,0.49072 0.1678,0.13497 1.17838,0.39055 2.24573,0.56797 1.7681,0.2939 3.35642,0.24648 5.79842,-0.17311 3.33444,-0.57292 -3.44248,5.28561 -9.45885,8.17703 -2.92051,1.40357 -4.61403,2.63057 -4.42276,3.20441 0.14013,0.42036 0.7184,0.52257 0.72015,0.12728 0.002,-0.47494 4.29327,-2.73628 4.81356,-2.53663 0.22535,0.0865 0.49127,0.59191 0.59094,1.12318 0.0997,0.53128 0.25213,1.16586 0.33881,1.41019 0.10178,0.28688 -0.11971,0.18651 -0.6253,-0.28337 -1.69504,-1.57533 -3.71469,-0.55921 -3.74843,1.88588 -0.0201,1.45324 -0.2895,2.67818 -0.5891,2.67818 -0.39278,0 -0.78204,-0.9713 -0.78204,-1.95137 0,-1.17355 -0.35066,-1.39877 -0.971,-0.62367 -0.26632,0.33275 -1.0188,1.01849 -1.67218,1.52387 -1.52617,1.18046 -1.83602,1.57253 -1.84632,2.33625 -0.007,0.49024 0.0906,0.58355 0.4546,0.43628 0.25466,-0.10303 1.15269,-0.41793 1.99561,-0.69978 1.52153,-0.50875 1.53791,-0.50866 2.26956,0.0123 0.59508,0.42373 1.01317,0.49755 2.17158,0.38341 0.78903,-0.0777 1.73226,-0.0193 2.09607,0.12993 0.531,0.2178 0.22543,0.27461 -1.54943,0.28807 -2.06614,0.0157 -2.27939,0.071 -3.25718,0.84545 l -1.0463,0.82869 0.727,0.75881 c 0.88592,0.92471 1.42174,0.97207 1.42174,0.12567 0,-0.7178 0.43374,-0.95435 1.74993,-0.95435 0.50209,0 1.34033,-0.17859 1.86275,-0.39687 2.3407,-0.97801 2.66698,0.1011 0.63555,2.10199 -1.53941,1.51626 -2.15426,2.71435 -1.57847,3.07578 0.48559,0.30482 0.81259,0.19361 4.73857,-1.61159 2.84433,-1.30784 6.78347,-2.55945 7.09013,-2.2528 0.54258,0.54258 -3.0171,3.35132 -7.67609,6.05676 -4.81088,2.79364 -5.87655,3.9363 -6.52519,6.99653 -0.44328,2.09137 -0.38208,8.66704 0.0957,10.2757 0.51323,1.72826 2.00906,3.27117 3.17134,3.27117 1.55224,0 4.01189,-2.06631 5.99805,-5.03886 0.23876,-0.35733 0.49493,-0.59015 0.56927,-0.51739 0.26689,0.26121 1.56018,11.4064 1.3984,12.05098 -0.20254,0.80699 -2.08445,2.64859 -4.38614,4.29219 -5.5535,3.96567 -6.44401,4.55813 -6.83972,4.55053 -0.23998,-0.005 -0.79351,-0.26983 -1.23007,-0.58937 z m -27.80434,-4.25192 c -0.7403,-0.46138 -1.99046,-1.3322 -2.77812,-1.93515 -1.6787,-1.28504 -6.326916,-5.83799 -6.326916,-6.19725 0,-0.1359 -0.16987,-0.2471 -0.37748,-0.2471 -0.20761,0 -0.67553,0.65105 -1.03983,1.44676 -1.816942,3.96872 -6.432252,6.50768 -11.179132,6.14983 -5.82026,-0.43877 -10.45615,-4.81483 -12.94032,-12.21505 -1.01509,-3.02389 -1.19954,-5.17168 -0.76475,-8.90472 0.78922,-6.77615 2.88331,-10.06697 8.03049,-12.61976 1.73532,-0.86065 2.24676,-0.98785 4.29948,-1.06932 l 2.32987,-0.0925 v -0.99961 c 0,-1.13896 -0.0832,-1.22805 -2.24895,-2.40798 -0.87313,-0.47569 -2.16641,-1.26095 -2.87396,-1.74503 -0.73633,-0.50377 -1.61771,-0.88015 -2.06107,-0.88015 -1.16467,0 -2.72075,0.91108 -3.83713,2.24663 -0.54846,0.65612 -1.1411,1.19296 -1.31698,1.19296 -0.70774,0 -0.76507,-3.82652 -0.18531,-12.36927 0.19077,-2.81108 0.13679,-2.77202 2.62625,-1.89996 1.76822,0.61941 4.90657,1.53851 7.6482,2.23985 1.01864,0.26058 2.03067,0.56128 2.24895,0.66821 1.45215,0.71139 9.05018,1.81439 12.601462,1.82934 0.97327,0.004 1.72597,0.13901 1.88326,0.33756 0.14411,0.1819 0.33427,2.83104 0.422566,5.88698 0.14731,5.09756 0.46014,8.41987 1.6194,17.19791 0.67934,5.14413 1.47177,9.20382 1.96247,10.05402 0.58806,1.01887 2.31013,2.00948 3.33897,1.92072 l 0.79375,-0.0685 -0.037,-1.72659 c -0.0204,-0.94962 -0.22778,-2.85462 -0.46092,-4.23333 -0.23315,-1.37871 -0.61096,-4.53081 -0.83959,-7.00466 -0.52223,-5.65076 -0.92739,-21.88714 -0.55242,-22.13773 0.14593,-0.0975 1.40477,-0.25463 2.79743,-0.34912 1.39266,-0.0945 3.98028,-0.34213 5.75027,-0.5503 4.80451,-0.56504 5.01639,-0.54682 5.21543,0.44835 0.0909,0.45475 0.16503,5.30655 0.16462,10.78177 -7.1e-4,9.67475 0.24951,16.54755 0.82963,22.78724 0.15559,1.67349 0.3416,4.11427 0.41336,5.42396 0.12707,2.3193 0.10988,2.40945 -0.66068,3.46547 -1.13465,1.55497 -3.61897,3.10906 -6.31154,3.94823 -1.27011,0.39584 -3.24944,1.12212 -4.39852,1.61394 -1.14908,0.49183 -2.16798,0.88477 -2.26422,0.8732 -0.0962,-0.0116 -0.7807,-0.39851 -1.521,-0.85989 z M 88.757892,281.55596 c 2.14585,-1.47036 2.40255,-3.69406 1.11621,-9.66939 -0.16446,-0.76398 -0.43792,-1.38906 -0.60768,-1.38906 -0.16976,0 -0.59729,0.31387 -0.95008,0.69749 -0.35279,0.38362 -1.72621,1.50346 -3.05204,2.48853 -3.08593,2.29278 -4.06888,3.33832 -4.07046,4.32963 -0.001,0.93127 0.99951,2.30181 2.44698,3.35035 1.40529,1.01799 3.78184,1.10736 5.11707,0.19245 z m -58.72012,10.2721 c -1.07583,-1.41049 -1.93704,-3.64193 -1.2391,-3.21058 0.41932,0.25915 2.1766,3.54768 2.06872,3.87133 -0.0545,0.1634 -0.4278,-0.13394 -0.82962,-0.66075 z m 31.80286,-0.81864 c -0.18566,-0.18567 -5.17255,-0.8534 -8.95483,-1.19903 -1.81703,-0.16605 -3.46927,-0.43932 -3.67165,-0.60728 -0.60062,-0.49847 -0.19557,-3.47476 1.24938,-9.1806 0.71862,-2.83766 1.61422,-7.00485 1.99023,-9.26042 0.78816,-4.72794 2.29654,-15.77561 2.47829,-18.15155 l 0.12355,-1.61509 -1.15285,-0.28453 c -0.63406,-0.15649 -2.16488,-0.42365 -3.4018,-0.5937 -2.06204,-0.28348 -4.85909,-0.89231 -7.54063,-1.64136 -1.04456,-0.29178 -1.04853,-0.29761 -0.30554,-0.44793 l 0.75279,-0.1523 -0.57356,-0.7276 c -0.75313,-0.95541 -0.35223,-0.92757 0.79776,0.0554 1.1526,0.98519 1.84209,1.04218 1.84209,0.15225 0,-0.89365 -1.04441,-2.01297 -5.8197,-6.23713 -4.84811,-4.28856 -8.4678,-7.95175 -8.4678,-8.56955 0,-0.24329 0.1936,-0.81672 0.43022,-1.2743 0.23663,-0.45757 0.64591,-2.38659 0.90953,-4.28669 0.46576,-3.35716 1.31019,-6.07392 1.69459,-5.45195 0.10242,0.16572 0.0693,0.44492 -0.0736,0.62045 -0.31761,0.39018 -0.17121,2.28849 0.20555,2.66525 0.4233,0.4233 0.32487,1.17733 -0.25639,1.96408 -0.60158,0.81424 -0.83019,2.71584 -0.34711,2.8873 0.50234,0.1783 1.08622,-0.97667 1.4316,-2.83187 0.37334,-2.00534 0.37526,-3.22432 0.008,-5.35781 -0.0188,-0.10914 -0.21271,-0.19844 -0.43099,-0.19844 -0.21828,0 -0.39688,-0.17859 -0.39688,-0.39688 0,-0.63162 0.4505,-0.47341 2.0146,0.7075 0.97789,0.73831 1.68706,1.54953 2.13953,2.44739 2.03513,4.03846 3.5612,5.72509 7.22296,7.98295 2.00837,1.23837 9.22292,4.60487 9.86842,4.60487 0.425,0 3.72683,0.84061 6.8221,1.73684 1.24891,0.36161 3.74922,0.98831 5.55625,1.39266 l 3.28552,0.73518 -0.0248,6.14903 c -0.0136,3.38196 -0.13271,6.25116 -0.26459,6.37598 -0.13353,0.1264 -0.98579,0.11115 -1.92348,-0.0344 -1.08997,-0.16921 -1.77438,-0.17071 -1.94084,-0.004 -0.14143,0.14142 -0.36477,2.80085 -0.49633,5.90983 -0.28994,6.85216 -0.81071,12.3494 -1.8514,19.54333 -1.65322,11.42808 -2.11071,13.39236 -2.92866,12.57441 z m -50.96104,-2.70885 c -0.9241297,-0.0874 -1.1244797,-0.20341 -1.1244797,-0.65085 0,-0.50043 0.11227,-0.53168 1.3890697,-0.3866 0.76398,0.0868 2.13782,0.23549 3.05297,0.3304 2.26566,0.23499 2.02645,0.75573 -0.36216,0.78841 -1.007,0.0138 -2.33693,-0.0228 -2.9554,-0.0814 z M 149.80652,266.66105 c 0.001,-1.01865 0.049,-1.40294 0.10627,-0.85399 0.0573,0.54894 0.0563,1.38238 -0.002,1.85208 -0.0584,0.4697 -0.10531,0.0206 -0.10414,-0.99809 z M 26.475442,266.13188 c 0.005,-0.43656 0.0647,-0.58312 0.13178,-0.32569 0.0671,0.25743 0.0627,0.61462 -0.01,0.79375 -0.0725,0.17913 -0.12736,-0.0315 -0.12197,-0.46806 z m 170.290478,-7.72136 c 0.191,-0.0764 0.4192,-0.067 0.50712,0.0209 0.0879,0.0879 -0.0684,0.15045 -0.34727,0.13896 -0.30822,-0.0127 -0.37091,-0.0754 -0.15985,-0.15985 z m -20.04797,-1.21873 c 1.24283,-0.61274 2.99901,-1.62453 3.9026,-2.24841 1.82566,-1.26053 2.13535,-1.26625 0.70808,-0.0131 -2.35079,2.06402 -4.84837,3.41109 -6.27792,3.38598 -0.36316,-0.006 0.28212,-0.4416 1.66724,-1.12448 z M 35.698992,255.4824 c -1.22957,-3.35173 -1.27619,-3.49994 -1.58535,-5.0401 -0.34103,-1.69894 -0.34491,-1.81534 -0.0498,-1.4951 0.20622,0.2238 2.16914,6.04911 2.49189,7.3951 0.0698,0.29104 0.21267,0.73753 0.31751,0.99219 0.10484,0.25466 0.0746,0.46302 -0.0671,0.46302 -0.14177,0 -0.63995,-1.0418 -1.10706,-2.31511 z m 106.339908,0.47776 c 0.15142,-0.28294 0.39373,-0.58762 0.53847,-0.67707 0.14474,-0.0895 0.26316,-0.51281 0.26316,-0.94078 0,-0.84588 0.37108,-1.04258 0.6408,-0.33969 0.18187,0.47396 -0.98819,2.47197 -1.44761,2.47197 -0.18202,0 -0.18033,-0.1678 0.005,-0.51443 z m -1.67648,-1.48689 c 0.37462,-0.57174 0.3993,-0.87332 0.15696,-1.91823 -0.15816,-0.6819 -0.37773,-1.47795 -0.48795,-1.76899 -0.18079,-0.4774 -0.15501,-0.49223 0.26347,-0.15156 1.20659,0.98223 1.62268,3.27946 0.73886,4.0793 -0.76872,0.69569 -1.18665,0.54595 -0.67134,-0.24052 z m -4.04517,-0.78821 c -0.19964,-0.52025 0.0366,-0.75912 0.55429,-0.56046 0.23253,0.0892 0.33759,0.32755 0.24768,0.56185 -0.20057,0.52269 -0.60113,0.52199 -0.80197,-0.001 z m 40.50621,-0.62411 c 0.15375,-0.24878 5.44238,-3.91372 6.36603,-4.41157 0.29104,-0.15687 1.60073,-0.85604 2.91042,-1.55372 1.30968,-0.69768 2.97656,-1.66655 3.70416,-2.15304 1.88946,-1.26333 5.17901,-4.20889 6.77086,-6.06282 0.7497,-0.87312 1.85467,-2.11924 2.45549,-2.76913 0.99382,-1.075 1.10002,-1.12886 1.17676,-0.5968 0.14838,1.0288 -5.00982,6.99267 -8.1829,9.46099 -0.81618,0.6349 -2.60212,1.7129 -3.96875,2.39555 -1.36664,0.68265 -3.43729,1.78005 -4.60146,2.43868 -2.56926,1.45355 -6.44223,3.4905 -6.63667,3.4905 -0.0778,0 -0.0751,-0.10739 0.006,-0.23864 z m -40.12955,-1.13877 c -0.59339,-0.44351 -0.27574,-0.94414 0.79363,-1.25083 0.93103,-0.26702 1.49397,0.13774 1.33778,0.96189 -0.11199,0.59087 -1.47944,0.77625 -2.13141,0.28894 z m 32.6387,-0.38905 c 0.56059,-0.68475 5.45194,-4.53346 6.35529,-5.0006 2.21956,-1.14778 -0.0521,0.99258 -4.0557,3.82131 -2.34887,1.65958 -2.94168,1.96358 -2.29959,1.17929 z M 31.550482,244.13516 c -0.20482,-0.81608 0.17775,-2.52158 0.56193,-2.50506 0.56262,0.0242 0.42443,3.20283 -0.13924,3.20283 -0.13616,0 -0.32637,-0.314 -0.42269,-0.69777 z m 130.753588,-3.27098 c 0.36009,-4.1154 1.99227,-9.30789 4.02134,-12.7932 1.25929,-2.16309 5.65269,-8.01512 7.87544,-10.49014 0.98017,-1.0914 2.13326,-2.3787 2.56243,-2.86065 1.65538,-1.85896 4.55274,-5.82825 5.68393,-7.7868 0.65072,-1.12667 1.2923,-2.11597 1.42573,-2.19843 0.63923,-0.39507 0.0843,1.185 -1.50367,4.28143 -2.1257,4.14495 -3.82872,6.55025 -6.77687,9.57147 -7.64033,7.82969 -9.54836,11.04471 -12.51383,21.08569 -0.93252,3.15749 -0.94879,3.18251 -0.7745,1.19063 z M 14.912382,240.69331 c -2.78457,-1.47583 -5.4733697,-3.56998 -5.0838397,-3.9595 0.1931997,-0.1932 6.8057397,4.11373 6.8057397,4.43276 0,0.35976 -0.31192,0.27403 -1.7219,-0.47326 z m 2.38336,-7.50205 c -0.10046,-0.45737 -0.1275,-0.88674 -0.0601,-0.95415 0.0674,-0.0674 0.19863,0.25778 0.2916,0.72264 0.22057,1.10285 0.007,1.3166 -0.23151,0.23151 z m 161.924998,-0.66899 c 1.86973,-1.08067 4.12668,-1.97551 5.42396,-2.15048 0.75881,-0.10235 0.61547,0.0128 -0.79375,0.63754 -0.94589,0.41935 -2.13651,0.95978 -2.64583,1.20096 -1.00121,0.47411 -3.13858,1.25055 -3.40671,1.23754 -0.0908,-0.004 0.54921,-0.42091 1.42233,-0.92556 z M 16.701002,230.41313 c 0.003,-0.58208 0.0571,-0.78905 0.12041,-0.45993 0.0633,0.32912 0.0609,0.80537 -0.005,1.05833 -0.0662,0.25297 -0.118,-0.0163 -0.11507,-0.5984 z m -6.37158,-0.7457 c -0.6019997,-0.6408 -0.7547797,-1.23867 -0.31652,-1.23867 0.27776,0 1.17416,1.56667 0.99749,1.74334 -0.0587,0.0587 -0.3651,-0.16844 -0.68097,-0.50467 z m 11.76251,-1.57238 c -0.29557,-1.10279 -0.16614,-6.66458 0.20773,-8.92671 0.20444,-1.23692 0.99563,-4.92786 1.75821,-8.20208 0.76258,-3.27422 1.53858,-6.78656 1.72444,-7.80521 0.55086,-3.01913 0.72792,-8.42084 0.39027,-11.90625 -0.576,-5.94572 -1.30715,-9.17228 -4.54264,-20.04655 -0.85584,-2.87643 -1.55405,-5.43628 -1.55156,-5.68854 0.0103,-1.05008 1.65687,2.46291 2.88529,6.15593 1.95159,5.86709 2.94917,10.16268 4.43373,19.09187 0.4344,2.61275 0.43036,2.82677 -0.14459,7.67292 -0.60536,5.10243 -1.16399,8.25901 -2.28698,12.9227 -1.60163,6.65144 -2.19317,10.56482 -2.22731,14.73491 -0.0183,2.23973 -0.32647,3.1914 -0.64659,1.99701 z m -1.98737,-5.15639 c -0.0169,-0.32743 -0.12978,-0.59532 -0.25089,-0.59532 -0.24602,0 -0.8876,-1.89081 -0.7039,-2.07451 0.20504,-0.20504 1.21432,2.41435 1.09755,2.84848 -0.0695,0.25843 -0.12373,0.19058 -0.14276,-0.17865 z M 198.5069,220.35897 c -0.88876,-1.74625 -1.87891,-3.97319 -2.20033,-4.94876 -0.32142,-0.97556 -1.98897,-4.60697 -3.70567,-8.06979 -3.22243,-6.50011 -4.83034,-10.84173 -6.49619,-17.54083 -1.29497,-5.20761 -3.02772,-10.07635 -4.66109,-13.09687 -3.5996,-6.65661 -4.17583,-7.60259 -5.04487,-8.28214 -0.69936,-0.54686 -5.23488,-1.3518 -9.9955,-1.77396 -6.6961,-0.59379 -8.15987,-0.55188 -15.09605,0.43228 -2.93691,0.41672 -5.37551,1.53853 -8.09955,3.72599 -1.29332,1.03856 -3.04421,2.29488 -3.89087,2.79182 -2.06997,1.21495 -2.44743,1.91232 -2.65149,4.89868 -0.17246,2.52378 -1.02889,7.23021 -1.37395,7.55032 -0.2183,0.20253 0.0203,-5.13567 0.39329,-8.79919 0.2736,-2.68723 0.34214,-2.77931 3.05486,-4.10431 0.87313,-0.42647 2.30188,-1.37312 3.175,-2.10367 1.94973,-1.63136 4.64066,-3.30701 6.18123,-3.84907 4.56537,-1.60634 20.25818,-1.61285 26.40829,-0.0109 2.63669,0.68677 3.02557,0.99956 4.68871,3.77126 0.85078,1.41787 1.88529,2.85119 2.2989,3.18517 0.70724,0.57108 0.79864,0.58312 1.53509,0.20228 0.4307,-0.22272 1.33737,-1.11046 2.01483,-1.97276 1.24144,-1.58015 2.08486,-2.05119 3.09736,-1.72983 0.46472,0.14749 0.51782,0.32401 0.38624,1.284 -0.20572,1.50088 -1.11541,3.56509 -1.96258,4.45335 -0.84849,0.88964 -2.13701,0.97955 -2.8439,0.19844 -0.26339,-0.29104 -0.59339,-0.52917 -0.73333,-0.52917 -0.32257,0 -0.19657,0.40791 0.98079,3.175 0.52629,1.23693 1.43541,3.76777 2.02027,5.6241 0.7788,2.47187 1.21952,3.47279 1.64679,3.73999 0.32086,0.20067 1.7252,0.73915 3.12074,1.19664 2.76291,0.90572 4.20953,1.96992 4.20953,3.09671 0,0.74651 0.64326,0.83832 1.52863,0.21818 0.7076,-0.49563 0.74986,-0.86744 0.12501,-1.09991 -1.67723,-0.62401 -3.86925,-2.99301 -3.29799,-3.56427 0.20547,-0.20547 0.65715,-0.0142 1.59851,0.67678 1.24705,0.91542 3.12113,1.75345 3.92123,1.75345 0.20311,0 0.50491,-0.29766 0.67067,-0.66146 0.51975,-1.14072 0.74561,-0.73141 0.74561,1.35122 0,1.81464 -0.0456,1.99352 -0.46303,1.81795 -1.2125,-0.50996 -2.25219,-0.18164 -3.30651,1.04414 -0.45138,0.52478 -0.48051,1.22519 -0.11089,2.66586 0.0747,0.29104 0.14488,0.6643 0.15601,0.82946 0.0352,0.52258 1.41521,1.23794 2.32228,1.20384 0.97127,-0.0365 1.14453,0.31629 0.3612,0.73551 -1.58494,0.84823 -3.31752,-0.19745 -4.73567,-2.85817 -0.70674,-1.32598 -1.02426,-1.64425 -2.09235,-2.09722 -1.94122,-0.82327 -2.94864,-0.97843 -3.1386,-0.4834 -0.27809,0.7247 0.75564,4.52375 2.13039,7.82935 0.8832,2.12366 4.70893,9.74868 5.59741,11.15613 0.80956,1.28242 1.65753,1.72267 2.4752,1.28507 0.32191,-0.17228 0.63758,-0.26095 0.70149,-0.19704 0.0639,0.0639 0.0835,2.12738 0.0435,4.5855 l -0.0727,4.4693 z m -12.20882,-46.71314 0.77457,-1.44103 -1.08168,1.15851 c -0.59493,0.63718 -1.08169,1.33171 -1.08169,1.5434 0,0.73409 0.61812,0.1729 1.3888,-1.26088 z M 11.934622,220.18368 c -0.18008,-0.18008 -0.32742,-0.46762 -0.32742,-0.63898 0,-0.17136 -0.15898,-0.4435 -0.35328,-0.60476 -0.1943,-0.16125 -0.51673,-0.80091 -0.71651,-1.42146 -0.19978,-0.62054 -0.46635,-1.20028 -0.5923897,-1.2883 -0.12604,-0.088 -0.19056,-0.56427 -0.14339,-1.05833 l 0.0858,-0.8983 0.4846297,0.71415 c 0.54482,0.80282 2.08246,4.94603 1.96565,5.29646 -0.0416,0.12482 -0.22298,0.0796 -0.40307,-0.10048 z m 7.81888,-4.47651 c -0.68154,-1.45742 -1.00109,-2.91951 -0.97834,-4.47633 0.0191,-1.30505 0.0467,-1.3733 0.26767,-0.66146 0.46541,1.49926 1.31398,5.50117 1.22382,5.77163 -0.0496,0.14884 -0.28053,-0.13638 -0.51315,-0.63384 z m 70.82956,0.42282 c -5.09091,-1.37413 -9.5186,-3.81168 -14.41753,-7.93721 -4.13798,-3.48471 -5.11995,-4.48528 -7.53478,-7.67756 -2.73957,-3.62157 -4.77379,-7.54238 -5.69682,-10.98021 -1.07215,-3.99324 -1.35837,-11.06127 -0.65357,-16.13958 0.7107,-5.12085 0.75916,-5.82084 0.40297,-5.82084 -0.18062,0 -0.65077,0.34509 -1.04476,0.76686 -0.57127,0.61155 -0.8741,0.73832 -1.49522,0.62596 -0.42837,-0.0775 -0.93177,-0.26196 -1.11865,-0.4099 -0.34856,-0.27594 -2.42857,-1.44688 -3.95969,-2.22911 -1.41265,-0.72171 -1.03965,-0.9596 1.19062,-0.75935 2.28694,0.20534 2.97336,0.54108 3.83921,1.87788 0.67315,1.03929 0.70786,1.05336 1.38194,0.56046 0.47635,-0.34832 0.46969,-0.40158 -0.19041,-1.52136 -0.98433,-1.66979 -2.00079,-2.49906 -3.50938,-2.86311 -0.72761,-0.17558 -2.63261,-0.83598 -4.23333,-1.46756 -3.85956,-1.52282 -5.93767,-1.91649 -11.91915,-2.25795 -2.75781,-0.15743 -5.88601,-0.39946 -6.95156,-0.53786 -3.34874,-0.43493 -9.4605,-0.30693 -12.8273,0.26865 -6.52731,1.11591 -7.60018,1.4453 -10.5323,3.23362 -0.67094,0.40921 -1.29602,0.74402 -1.3890597,0.74402 -0.0931,0 -0.16918,-2.91703 -0.16918,-6.48229 v -6.48229 h 0.6564997 c 0.36108,0 1.93866,0.29113 3.50573,0.64696 1.56708,0.35583 4.81376,1.02028 7.21486,1.47656 2.40109,0.45628 5.25859,1.0575 6.35,1.33604 1.89482,0.48358 6.19707,1.26381 13.09687,2.37517 1.74625,0.28127 3.81994,0.63133 4.60819,0.77792 0.78826,0.14658 1.85982,0.25846 2.38125,0.24861 0.90611,-0.0171 0.92017,-0.0313 0.31785,-0.32059 -0.60467,-0.29041 -0.62371,-0.38351 -0.46984,-2.29719 0.0882,-1.09699 0.3378,-2.82794 0.55466,-3.84655 0.30876,-1.45025 0.32459,-1.91656 0.073,-2.14945 -0.17673,-0.16358 -1.45242,-0.49442 -2.83487,-0.73519 -1.38245,-0.24078 -4.21345,-0.81212 -6.2911,-1.26966 -2.29995,-0.50648 -3.87109,-0.7364 -4.01668,-0.58777 -0.33581,0.34282 -2.12764,6.35475 -2.12764,7.13863 0,0.58771 -0.10162,0.6438 -1.12448,0.6207 -0.61846,-0.014 -1.71979,-0.16628 -2.44739,-0.33847 -1.24999,-0.29581 -1.31861,-0.35639 -1.24479,-1.09908 0.043,-0.43231 0.72782,-2.69101 1.52189,-5.01935 0.79407,-2.32833 1.44352,-4.42711 1.44323,-4.66395 -0.001,-1.23476 1.43937,-1.13749 10.84738,0.73225 1.0914,0.21691 3.71078,0.68996 5.82083,1.05122 2.11005,0.36126 4.29426,0.77784 4.85379,0.92573 l 1.01734,0.2689 -0.1791,1.90126 c -0.0985,1.04569 -0.34794,3.06134 -0.55431,4.47921 -0.45948,3.15687 -0.46894,4.02604 -0.0511,4.69512 0.27301,0.43716 0.24172,0.57965 -0.19844,0.90355 -0.43002,0.31644 -0.45228,0.40826 -0.12569,0.51845 0.87345,0.29472 6.10434,1.49177 6.54277,1.49727 0.25778,0.003 0.75796,0.22824 1.11151,0.5 0.55879,0.42952 0.63763,0.69183 0.60303,2.00656 -0.0469,1.78157 0.3569,2.68992 1.62594,3.65787 l 0.91861,0.70066 1.5274,-0.69926 c 0.84006,-0.3846 2.78519,-1.1269 4.3225,-1.64955 l 2.79511,-0.95029 -0.004,-2.51354 c -0.004,-2.10644 -0.47764,-9.22316 -1.08975,-16.36268 -0.13439,-1.56748 -0.18164,-1.66726 -0.71551,-1.51106 -2.38954,0.69917 -3.70027,0.47121 -5.27853,-0.91803 -0.65731,-0.57859 -1.25786,-1.05198 -1.33455,-1.05198 -0.0767,0 -0.19103,0.26789 -0.2541,0.59531 -0.0852,0.44217 -0.12393,0.37967 -0.15069,-0.24294 -0.0421,-0.97868 -0.2738,-1.67528 -0.55729,-1.67528 -0.11003,0 -0.40603,0.65484 -0.65777,1.4552 -0.41167,1.30881 -0.53232,1.45521 -1.19917,1.45521 -0.4078,0 -3.34351,-0.59028 -6.52381,-1.31174 -3.1803,-0.72146 -7.7469,-1.73745 -10.14799,-2.25775 -2.4011,-0.5203 -5.19906,-1.1266 -6.21771,-1.34734 -1.01865,-0.22074 -3.75708,-0.82476 -6.08542,-1.34228 -2.32833,-0.51751 -6.0788,-1.33909 -8.33437,-1.82572 -2.25557,-0.48663 -5.23214,-1.13441 -6.61458,-1.4395 -1.38245,-0.30509 -3.49581,-0.74067 -4.69636,-0.96796 l -2.1828097,-0.41326 v -11.74514 c 0,-9.22032 0.0711,-11.7449 0.3307297,-11.74402 0.1819,6.2e-4 2.92469,0.65211 6.09509,1.44776 4.64859,1.16661 13.58509,3.13015 17.1221,3.76209 0.3638,0.065 2.14973,0.46429 3.96875,0.88731 1.81901,0.42303 4.73604,1.0767 6.48229,1.4526 1.74625,0.37591 4.85929,1.09893 6.91787,1.60671 2.05857,0.50778 4.26123,0.947 4.89479,0.97605 0.9849,0.0452 1.15192,-0.0222 1.15192,-0.46471 0,-0.38466 -0.30568,-0.60821 -1.19062,-0.87071 -4.11592,-1.22089 -10.67751,-2.92068 -19.1823,-4.96921 -1.60073,-0.38556 -4.16057,-1.03791 -5.68854,-1.44967 -1.52797,-0.41175 -4.38547,-1.16969 -6.35,-1.6843 C 8.8149423,104.94464 9.7555123,105.2237 9.7555123,104.6855 c 0,-0.2983 0.19352,-0.37198 0.7275997,-0.27702 1.11831,0.19882 9.54884,2.41766 13.69219,3.60367 2.03729,0.58316 5.91478,1.53885 8.61664,2.12375 2.70186,0.58491 9.19076,2.15327 14.41979,3.48526 5.22903,1.33198 9.68591,2.43758 9.9042,2.45688 0.29612,0.0262 0.45788,-0.41861 0.63719,-1.75214 0.33395,-2.48358 0.0916,-2.9195 -1.86629,-3.35745 -0.85197,-0.19057 -2.97778,-0.75871 -4.72403,-1.26254 -1.74625,-0.50382 -3.53219,-1.00871 -3.96875,-1.12198 -1.55733,-0.40405 -6.69369,-1.92727 -11.64164,-3.4524 -7.07267,-2.18004 -17.35822,-4.97655 -22.48958,-6.11463 -2.46349,-0.54637 -3.3072997,-0.8511 -3.3072997,-1.1944 0,-0.48033 1.0691097,-0.46433 2.7548697,0.0412 1.24483,0.37331 5.90148,1.61749 14.92006,3.98638 1.99322,0.52356 5.94575,1.64864 8.78341,2.50018 2.83765,0.85154 8.01687,2.33319 11.50937,3.29255 3.4925,0.95935 7.09132,1.98649 7.99738,2.28251 1.80147,0.58857 2.18908,0.51637 2.18908,-0.40774 0,-0.33615 0.19053,-1.66858 0.4234,-2.96095 0.24021,-1.33305 0.4063,-3.55181 0.38387,-5.12788 -0.0405,-2.84414 0.41197,-5.39712 1.62842,-9.188474 0.29079,-0.906312 0.5748,-2.215999 0.63112,-2.910416 0.0563,-0.694418 0.22025,-2.429099 0.36427,-3.854848 0.19141,-1.894905 0.18025,-2.722933 -0.0415,-3.07797 -0.2432,-0.389427 -0.18964,-0.67837 0.2702,-1.457748 0.31544,-0.534627 0.57352,-1.366994 0.57352,-1.849703 0,-0.482709 0.16148,-1.339106 0.35884,-1.903105 0.19736,-0.563999 0.44322,-1.918421 0.54636,-3.009828 0.10313,-1.091406 0.25598,-2.267223 0.33965,-2.612928 0.12962,-0.535599 0.18772,-0.564945 0.39283,-0.198437 0.37178,0.664335 0.68353,0.513356 0.88744,-0.42978 0.24953,-1.154125 1.26499,-3.131411 1.90531,-3.709975 0.28538,-0.257856 1.10192,-1.618986 1.81453,-3.024734 1.84374,-3.637057 5.01767,-6.57067 9.38956,-8.678606 1.36919,-0.660166 3.91147,-1.956922 5.6495,-2.881679 3.01763,-1.605592 3.21492,-1.762866 4.37718,-3.489353 1.39126,-2.066654 3.53112,-3.696499 6.06734,-4.621253 0.87028,-0.317319 2.549882,-1.206248 3.732452,-1.975398 2.507746,-1.631055 4.492486,-2.136255 7.499176,-1.908859 2.02457,0.153118 3.52916,0.619651 6.98506,2.16588 1.80215,0.806314 2.45527,0.96942 3.70416,0.925045 5.12508,-0.182101 6.53653,-0.09376 7.83373,0.490316 0.70972,0.319557 1.39433,0.581012 1.52135,0.581012 0.68518,0 -0.10474,-1.866675 -1.5395,-3.63802 -1.04685,-1.292435 -0.63063,-1.552273 0.69701,-0.435135 1.16475,0.980076 2.12236,2.74395 2.58079,4.753696 0.44252,1.940034 0.8077,2.229876 2.80945,2.229876 3.06125,0 6.4384,1.386334 7.3003,2.996797 0.36315,0.678559 1.11287,1.061726 4.74048,2.422783 2.39133,0.897212 3.84072,1.978852 5.16381,3.853612 0.99514,1.410056 1.01448,1.481847 0.86173,3.198428 l -0.15625,1.755995 1.03399,0.934147 c 0.5687,0.513781 1.31242,1.078335 1.65271,1.254566 1.10476,0.572124 1.59782,1.114445 1.22353,1.34577 -0.24886,0.153801 0.018,0.899047 1.04897,2.929896 1.55854,3.06995 1.94711,4.639932 1.73124,6.995007 l -0.149,1.625544 3.07835,3.035816 c 2.70885,2.671427 3.60664,3.899554 2.85068,3.899554 -0.12521,0 -0.66628,-0.297656 -1.20237,-0.661458 -1.25603,-0.852359 -1.53604,-0.842301 -1.19942,0.04308 0.36704,0.965401 -0.0829,1.408796 -0.78492,0.773482 -1.01842,-0.921658 -1.86695,0.0079 -1.8812,2.060777 -0.002,0.309232 -0.15999,0.859896 -0.35077,1.223698 -0.31315,0.597136 -0.27353,0.756024 0.4074,1.633937 0.75757,0.976725 0.67413,1.38346 -0.28757,1.401778 -0.20192,0.0038 -0.49958,0.239303 -0.66146,0.523238 -0.16187,0.283935 -0.52855,0.716747 -0.81483,0.961804 -0.28629,0.245057 -0.53558,0.786653 -0.55398,1.203546 -0.0184,0.416894 -0.0521,1.206741 -0.0748,1.755217 -0.0383,0.92478 -0.0894,0.98517 -0.70279,0.83121 -0.83966,-0.21074 -0.83142,-0.12092 0.151,1.64477 0.63856,1.14769 0.70935,1.40508 0.33072,1.20259 -0.44761,-0.23939 -0.4864,-0.0862 -0.54772,2.1635 -0.0416,1.52508 0.10531,3.25052 0.39687,4.66217 0.43747,2.11805 0.50644,2.25239 1.25663,2.44778 2.55526,0.66553 11.43403,2.74636 16.66875,3.90649 3.34698,0.74177 6.50213,1.45745 7.01146,1.59041 0.50932,0.13296 1.81901,0.43423 2.91041,0.66949 1.09141,0.23526 3.71078,0.83047 5.82084,1.32269 2.11005,0.49223 5.4438,1.26613 7.40833,1.71978 1.96453,0.45365 4.31601,1.01251 5.22552,1.2419 l 1.65365,0.41708 v 1.26988 c 0,1.26697 -0.002,1.26933 -0.72761,1.03053 -1.92914,-0.63461 -8.31539,-2.49095 -10.47422,-3.04462 -5.34298,-1.3703 -17.94254,-4.67697 -20.68047,-5.42745 -1.60073,-0.43876 -5.76791,-1.5143 -9.26041,-2.39009 -3.4925,-0.87578 -6.61789,-1.70403 -6.94532,-1.84056 -0.51312,-0.21395 -0.59587,-0.16681 -0.59936,0.34142 -0.005,0.78498 -0.3976,1.4069 -0.63995,1.01476 -0.49429,-0.79977 -0.80838,-0.0405 -2.72451,6.58634 -0.23142,0.80036 -0.95706,2.57267 -1.61252,3.93846 -1.08636,2.26363 -1.21113,2.73163 -1.41079,5.29166 -0.40148,5.14774 -0.68094,6.48098 -2.22713,10.6251 -0.48783,1.30748 -0.66669,2.37612 -0.73069,4.36563 -0.11978,3.72352 -0.6498,4.65378 -3.48265,6.11254 -2.09089,1.07669 -2.43402,1.53296 -3.33614,4.43611 -2.08393,6.70632 -5.30497,13.90857 -8.10201,18.11606 l -1.47437,2.21786 0.42299,1.88318 c 0.70676,3.14655 0.75642,3.91222 0.46868,7.226 -0.4082,4.7011 -1.04939,8.24285 -1.76303,9.73844 l -0.63124,1.32292 0.15553,-1.19063 c 0.0855,-0.65484 0.27326,-1.60734 0.41714,-2.11667 0.43375,-1.53537 0.59438,-10.39385 0.23257,-12.82579 -0.39271,-2.6396 -0.58649,-3.03473 -1.22761,-2.50303 -0.79999,0.66347 -1.13756,1.92816 -1.7,6.36888 -0.85308,6.73549 -1.94084,10.38825 -4.352,14.61428 -3.08307,5.40368 -7.00839,8.87196 -12.44801,10.99864 -4.07226,1.59209 -6.397426,1.97022 -10.974848,1.78477 -4.32896,-0.17537 -5.61307,-0.46364 -9.71569,-2.18102 -5.72322,-2.39577 -8.5864,-4.7081 -11.78512,-9.51774 -2.28717,-3.43903 -3.5141,-6.15282 -4.48222,-9.91399 -0.6682,-2.59595 -0.78426,-3.54773 -0.79048,-6.48229 -0.005,-2.33107 0.13938,-4.07911 0.4478,-5.42396 0.44733,-1.95057 2.10507,-6.50537 2.54704,-6.99822 0.12396,-0.13825 0.22539,-0.47858 0.22539,-0.75629 0,-0.41724 -0.12637,-0.47428 -0.7276,-0.32844 -3.14303,0.76242 -5.49474,3.76064 -6.5266,8.32081 -0.61004,2.69597 -0.83925,9.06979 -0.44396,12.34529 0.93894,7.78032 3.39378,12.20626 11.16368,20.12747 4.44284,4.52934 8.94821,7.32676 15.05532,9.34794 1.38636,0.45883 6.051152,1.02322 7.408332,0.89634 0.65484,-0.0612 1.83757,-0.22612 2.62828,-0.36644 2.288976,-0.4062 2.445916,-0.24449 0.28214,0.2907 -2.38648,0.59027 -7.155872,0.65295 -9.130392,0.11999 z M 103.6822,200.53934 c 0.50932,-0.19224 1.1344,-0.43788 1.38906,-0.54586 0.33034,-0.14007 0.46302,-0.0745 0.46302,0.22885 0,0.6018 0.74048,0.52718 1.83786,-0.18522 5.35395,-3.47565 6.91888,-4.77878 8.90176,-7.41258 2.32311,-3.08572 3.23669,-5.71548 4.4566,-12.82831 0.3765,-2.19519 0.75551,-4.17621 0.84226,-4.40227 0.33808,-0.88102 -0.44777,-0.31366 -2.83607,2.04758 -3.63287,3.5917 -6.03135,4.85576 -14.64994,7.72091 -3.54445,1.17832 -7.030726,1.52743 -8.897876,0.89102 -1.903302,-0.64873 -4.732052,-3.09233 -6.842842,-5.91116 -1.55345,-2.07453 -1.53413,-2.54736 0.0423,-1.0348 3.88654,3.72917 4.74756,4.2098 7.541602,4.2098 2.66753,0 2.87466,-0.36888 0.81746,-1.45581 -5.195392,-2.74499 -10.796212,-7.49196 -9.898622,-8.38955 0.0815,-0.0815 0.45989,0.056 0.84086,0.30566 0.38097,0.24962 0.77164,0.37427 0.86816,0.27701 0.17503,-0.17641 -1.73108,-2.04573 -5.66326,-5.55397 -1.14174,-1.01865 -2.55433,-2.3581 -3.13909,-2.97657 -1.53698,-1.62557 -1.77816,-1.48653 -1.21554,0.70076 0.81101,3.15292 1.79812,10.6408 1.97495,14.98128 0.12539,3.07787 -0.0328,2.58011 -0.63238,-1.98985 -0.16229,-1.23693 -0.5292,-3.21773 -0.81537,-4.40178 -0.28616,-1.18406 -0.52029,-2.39885 -0.52029,-2.69953 0,-0.30069 -0.1119,-0.8202 -0.24867,-1.15447 -0.13677,-0.33427 -0.56715,-1.79839 -0.9564,-3.25359 -0.68064,-2.54454 -2.08856,-5.95671 -2.45499,-5.94981 -0.097,0.002 -0.45313,1.04363 -0.79136,2.31511 -3.56908,13.41697 -3.6366,13.8011 -3.09887,17.63179 0.95856,6.82854 2.98042,10.32538 8.60862,14.88873 3.85411,3.12491 6.75583,4.68062 4.72541,2.53345 -1.10741,-1.17109 -2.07957,-2.54703 -2.07957,-2.94328 0,-0.15505 0.68461,0.13107 1.52135,0.63582 1.89822,1.14507 3.19666,1.56424 6.54844,2.11402 1.45521,0.23869 3.36021,0.60134 4.23333,0.80589 2.826632,0.66221 3.597552,0.42586 1.376902,-0.42212 -1.474952,-0.56322 -3.572612,-1.90582 -3.181392,-2.03623 0.17058,-0.0569 0.8845,0.15862 1.58649,0.47884 1.991202,0.90832 4.627192,1.75002 6.126378,1.95621 1.48332,0.20401 1.87102,0.66762 0.5583,0.66762 -0.4722,0 -0.74125,0.11022 -0.64584,0.26458 0.23032,0.37267 2.20439,0.30811 3.30729,-0.10817 z m -0.92604,-0.61825 c 0.14552,-0.14234 0.74083,-0.38013 1.32291,-0.52842 0.58209,-0.14829 1.2667,-0.35607 1.52136,-0.46174 0.32038,-0.13293 0.46302,-0.0701 0.46302,0.20412 0,0.24014 -0.33874,0.4548 -0.8599,0.54492 -0.47294,0.0818 -1.27661,0.22771 -1.78593,0.3243 -0.60515,0.11477 -0.83436,0.0859 -0.66146,-0.0832 z M 80.875942,185.41791 c -0.0605,-0.51816 -0.014,-1.00144 0.10334,-1.07395 0.11734,-0.0725 0.21333,0.35143 0.21333,0.9421 0,1.32567 -0.16908,1.39606 -0.31667,0.13185 z m 33.715548,-7.21787 c 1.85785,-0.81375 2.59143,-1.39531 7.06173,-5.59836 4.81602,-4.5281 6.28274,-6.58056 8.77757,-12.28289 0.89621,-2.04842 1.81045,-4.11987 2.03165,-4.60323 0.58927,-1.28763 3.63613,-10.22004 4.84448,-14.20242 2.21063,-7.28566 3.15236,-14.42085 3.15236,-23.88448 0,-3.69798 -0.1916,-4.0458 -3.01941,-5.48112 -1.85355,-0.94081 -2.09613,-0.99745 -3.65023,-0.85225 -0.9156,0.0855 -2.61723,0.37112 -3.7814,0.63461 -3.27805,0.74193 -6.64029,0.51179 -8.89401,-0.60879 -1.00402,-0.49922 -1.63812,-1.99383 -1.42582,-3.36076 0.33623,-2.16486 0.71191,-2.66257 1.03577,-1.37221 0.202,0.80484 0.56677,0.84777 0.96002,0.11298 0.28747,-0.53714 0.43836,-0.5467 7.30742,-0.46302 l 7.0139,0.0855 0.80208,0.92605 c 0.44114,0.50932 1.12334,1.28323 1.516,1.71979 0.39266,0.43656 1.27041,1.4811 1.95055,2.3212 l 1.23663,1.52745 -0.13273,-1.52745 c -0.073,-0.8401 -0.31377,-3.3908 -0.53505,-5.66821 -0.31082,-3.19911 -0.33738,-4.54726 -0.11677,-5.92823 0.19841,-1.24198 0.20125,-1.87178 0.009,-2.06372 -0.15194,-0.15194 -0.27698,-0.57986 -0.27788,-0.95094 -8.9e-4,-0.37108 -0.16003,-0.97822 -0.35364,-1.3492 -0.19361,-0.37099 -0.42495,-1.124023 -0.51411,-1.673418 -0.0891,-0.549395 -0.31697,-1.356621 -0.50625,-1.793835 -0.30359,-0.701227 -0.44495,-0.778924 -1.19921,-0.659112 -1.0865,0.172591 -1.36548,-0.228272 -0.40337,-0.579597 l 0.72925,-0.266293 -0.79375,-0.01704 c -0.83,-0.01782 -2.57842,0.515331 -3.85514,1.175548 -0.41183,0.212967 -0.92883,0.387213 -1.14888,0.387213 -0.47477,0 -3.40612,1.070757 -3.2791,1.197781 0.18299,0.182987 2.73523,-0.483656 2.91092,-0.76033 0.10123,-0.159409 0.26424,-0.209655 0.36223,-0.111658 0.26171,0.261709 -0.56222,0.996463 -1.12269,1.001175 -0.41054,0.0035 -0.42313,0.04383 -0.085,0.272621 0.29591,0.200247 0.21543,0.226492 -0.31636,0.103166 -0.46207,-0.107159 -0.92791,-0.01323 -1.32291,0.266741 -0.59646,0.422765 -0.58645,0.428503 0.46141,0.264377 0.80847,-0.126631 1.15701,-0.06426 1.42146,0.254388 0.19269,0.232183 0.62641,0.422153 0.9638,0.422153 0.72017,0 1.12333,0.49793 0.64335,0.79457 -0.22062,0.13636 -0.0538,0.26772 0.49223,0.38765 0.45427,0.0998 0.90556,0.31023 1.00287,0.46768 0.20867,0.33764 -2.79001,0.0912 -3.5408,-0.29104 -0.25658,-0.13061 -1.06183,-0.49772 -1.78943,-0.81578 -0.7276,-0.31807 -1.79917,-0.806856 -2.38125,-1.08619 l -1.05833,-0.50788 0.92604,-0.0077 c 0.50932,-0.0042 1.10463,-0.123138 1.32292,-0.264202 0.29717,-0.192052 0.15969,-0.257498 -0.5473,-0.260532 -0.51929,-0.0022 -1.5611,-0.187262 -2.31514,-0.411187 -1.59045,-0.472314 -2.73617,-1.545024 -5.07567,-4.752239 -1.59186,-2.182272 -2.20021,-2.815325 -3.00067,-3.12249 -0.42611,-0.163515 -0.43339,-0.118592 -0.0884,0.546118 0.20673,0.398359 0.77813,1.554268 1.26977,2.568687 0.98433,2.030978 3.68964,5.028589 5.25953,5.827794 0.50932,0.259289 0.98557,0.547413 1.05833,0.640276 0.0728,0.09287 0.42995,0.306315 0.79375,0.474345 l 0.66146,0.3055 -0.82105,0.0179 c -1.66345,0.0363 -5.57829,-1.751226 -7.04277,-3.215706 -0.36808,-0.368084 -0.60685,-0.458556 -0.6745,-0.255582 -0.0576,0.172806 -0.5078,0.314192 -1.00042,0.314192 -0.70179,0 -0.86149,-0.08912 -0.73771,-0.411687 0.15588,-0.406218 -0.7781,-1.542446 -1.04692,-1.273625 -0.22298,0.222982 -3.69865,0.123683 -4.55163,-0.130038 -0.85422,-0.254089 -0.8493,-0.257917 1.19063,-0.925869 0.78918,-0.258411 1.05318,-0.444245 0.78298,-0.551165 -0.2242,-0.08872 -1.3292,0.139523 -2.45557,0.507205 -2.18372,0.71284 -4.14513,0.841601 -5.86804,0.385221 -1.40157,-0.37126 -3.2174,-1.212758 -4.217816,-1.954643 -0.67089,-0.497507 -1.05808,-0.581146 -2.26447,-0.489156 -0.80037,0.06103 -1.75287,0.305509 -2.11667,0.543285 -0.425422,0.278053 -1.438562,0.473324 -2.839192,0.547226 -1.42417,0.07514 -2.28409,0.24306 -2.4851,0.485261 -0.16905,0.203696 -0.26063,0.400776 -0.20352,0.437955 0.70147,0.456603 2.28987,0.977947 2.97955,0.977947 0.48035,0 1.57764,0.227357 2.43842,0.505237 3.642632,1.175929 6.630948,1.734485 10.891608,2.035781 4.59312,0.324806 2.49348,0.638246 -4.73871,0.707406 -2.728956,0.0261 -4.389176,-0.274468 -5.646176,-1.022179 -0.29105,-0.173122 -0.949862,-0.388219 -1.464042,-0.477993 -0.51418,-0.08977 -1.81609,-0.71162 -2.89313,-1.381881 -1.7886,-1.113079 -2.06104,-1.204567 -3.14471,-1.056032 -1.27995,0.175436 -3.78566,1.223776 -4.40474,1.842857 -0.28914,0.289132 -0.34358,0.788375 -0.22482,2.06156 0.18105,1.940893 -0.0281,2.416573 -3.06472,6.971703 -0.97012,1.45521 -1.85469,2.79551 -1.96572,2.97843 -0.75884,1.25023 2.48505,-0.0341 6.18167,-2.44753 2.53306,-1.65375 2.71614,-1.72311 5.01676,-1.90052 2.08036,-0.16042 2.15965,-0.1434 5.492352,1.17964 3.97169,1.5767 5.455306,1.99829 8.671766,2.46421 1.83739,0.26615 2.51858,0.48348 2.98858,0.95348 0.74726,0.74725 1.15458,0.76551 1.77533,0.0796 0.42635,-0.47111 1.19063,-0.73123 1.19063,-0.40523 0,0.0682 -0.47839,1.05997 -1.06308,2.204 -1.19128,2.33092 -2.27475,3.52545 -3.29972,3.63797 -0.37926,0.0416 -0.86095,0.21793 -1.07043,0.39179 -0.20948,0.17385 -0.56852,0.24408 -0.79787,0.15607 -0.22936,-0.088 -0.77394,0.0246 -1.2102,0.25016 -1.00624,0.52034 -1.64963,0.32413 -5.852276,-1.78477 -4.106822,-2.06082 -5.157682,-2.17528 -9.725182,-1.05928 -1.81901,0.44444 -4.13763,0.84562 -5.15249,0.8915 -1.78525,0.0807 -1.85662,0.0598 -2.19648,-0.64258 -0.40203,-0.83089 -1.35354,-1.1694 -2.12561,-0.7562 -0.29042,0.15543 -0.79181,0.82748 -1.1142,1.49345 -0.32239,0.66597 -1.04861,1.7959 -1.61383,2.51095 -1.81497,2.29611 -2.16667,3.23292 -2.37302,6.32095 -0.1069,1.59984 -0.38094,3.28034 -0.63979,3.92342 -0.2999,0.74506 -0.3977,1.45978 -0.28966,2.11666 0.23709,1.44137 0.61763,6.32131 0.78161,10.02312 0.11074,2.49999 0.0609,3.31978 -0.22513,3.70417 -0.33914,0.45572 -0.4244,0.46252 -1.1099,0.0885 -0.40839,-0.22283 -1.04371,-0.95993 -1.41181,-1.63802 l -0.66928,-1.23287 -0.52135,1.08016 c -0.6367,1.31915 -2.23097,2.68157 -2.85686,2.4414 -0.63395,-0.24327 -0.54595,-0.8226 0.1527,-1.00526 0.76181,-0.19918 1.86287,-1.88834 1.65592,-2.54038 -0.19592,-0.61731 -3.92399,-3.97593 -4.41328,-3.97593 -0.39241,0 -1.01295,-2.68346 -1.01295,-4.38037 0,-0.84436 1.17108,-4.79916 1.52341,-5.14463 0.0742,-0.0728 0.0707,1.0881 -0.008,2.57969 -0.10483,1.99183 -0.0596,2.71198 0.17029,2.71198 0.30252,0 1.75379,-2.99094 1.75373,-3.61428 -4e-5,-0.39479 -1.35491,-2.47114 -1.61248,-2.47114 -0.10755,0 -0.25559,0.14883 -0.32899,0.33073 -0.0824,0.20428 -0.14144,0.16029 -0.15434,-0.11507 -0.0115,-0.24518 -0.13782,-0.75333 -0.28073,-1.12922 l -0.25984,-0.68343 -0.55711,0.55711 c -0.30641,0.30641 -0.98291,1.56299 -1.50333,2.79241 -1.16206,2.74516 -1.66528,2.67221 -1.17777,-0.17074 0.17507,-1.02091 0.31365,-2.65765 0.30795,-3.63722 l -0.0104,-1.78103 -0.38805,0.89391 c -0.21342,0.49165 -0.51736,1.99036 -0.6754,3.33046 -0.3055,2.59033 -0.29157,2.68317 0.92281,6.15383 0.36786,1.05134 0.91494,3.1868 1.21573,4.74546 0.77603,4.0213 1.19686,5.26591 2.48746,7.35666 1.42244,2.30432 2.65417,3.33635 4.17746,3.50014 1.43709,0.15453 2.70745,-0.37145 3.90813,-1.61811 0.50148,-0.5207 1.05281,-0.94672 1.22515,-0.94672 0.22698,0 0.32268,1.1685 0.34718,4.2388 0.0522,6.54404 0.84802,11.24755 2.41616,14.28024 1.13428,2.19362 3.75513,5.31318 6.35336,7.56231 1.50033,1.29875 3.84552,3.46962 5.21154,4.82417 3.60346,3.57319 5.97675,5.02069 10.919182,6.65976 1.91055,0.6336 3.429856,0.9655 8.995836,1.96515 0.3638,0.0653 2.03067,0.0817 3.70416,0.0363 2.36808,-0.0642 3.32031,-0.20408 4.29471,-0.63087 z m -12.23768,-12.35107 c -0.79603,-0.84733 -0.64833,-1.1005 0.86537,-1.48327 3.28416,-0.83047 9.17836,-0.0839 9.41767,1.19281 0.0513,0.27361 -0.0673,0.60296 -0.26351,0.7319 -0.19622,0.12894 -2.41306,0.20779 -4.9263,0.17522 -4.26371,-0.0553 -4.60459,-0.0965 -5.09323,-0.61666 z m 2.37364,-3.13265 c -1.35942,-0.36664 -3.16192,-1.3965 -3.16192,-1.80657 0,-0.16505 0.28559,-0.19875 0.72761,-0.0858 3.12307,0.79767 4.75441,1.00663 7.8052,0.99978 1.8554,-0.004 3.37344,0.0248 3.37344,0.0644 0,0.0396 -0.53448,0.32322 -1.18774,0.63028 -0.96638,0.45425 -1.66907,0.55498 -3.77031,0.54045 -1.42042,-0.01 -3.12424,-0.16395 -3.78628,-0.3425 z m 13.40974,-5.2291 c -2.00298,-0.66222 -3.00895,-0.8134 -6.87917,-1.0338 -2.49321,-0.14198 -5.90233,-0.49311 -7.57582,-0.78028 -6.396536,-1.09764 -6.931916,-1.15748 -7.451806,-0.8328 -0.5993,0.37427 -2.138352,-0.32366 -3.055272,-1.38549 -0.5723,-0.66275 -0.61248,-0.66949 -1.82187,-0.30552 -0.68016,0.2047 -1.57643,0.69771 -1.99172,1.09558 -0.41528,0.39787 -0.83285,0.64562 -0.92791,0.55055 -0.0951,-0.0951 -0.17285,-0.82432 -0.17285,-1.62056 0,-1.6752 0.93609,-3.86175 2.11716,-4.94531 0.865,-0.7936 8.756402,-5.17171 11.055308,-6.13344 0.87313,-0.36526 2.29507,-0.86935 3.15988,-1.12019 l 1.57238,-0.45608 0.60912,0.76121 c 0.33501,0.41867 0.61367,0.99934 0.61923,1.29038 0.006,0.29104 0.24096,0.80614 0.52309,1.14466 0.69021,0.82815 1.35955,0.58022 2.41998,-0.89641 0.46383,-0.64586 0.97196,-1.17351 1.12919,-1.17255 0.15724,9.6e-4 0.64307,0.2383 1.07963,0.52742 1.07113,0.70938 1.83974,0.71851 1.46452,0.0174 -0.37981,-0.70969 -0.35602,-0.75346 0.33751,-0.62089 0.66929,0.12795 1.31878,-0.4356 1.02711,-0.89119 -0.10082,-0.15747 -0.68932,-0.54285 -1.30779,-0.8564 -0.61846,-0.31355 -1.12447,-0.6744 -1.12447,-0.80188 0,-0.34501 1.81354,-1.87257 2.56015,-2.15643 0.99482,-0.37822 1.62223,-0.2978 2.20235,0.28231 0.67972,0.67973 0.6712,1.58111 -0.0261,2.763 -0.4128,0.69965 -0.46272,0.94117 -0.19452,0.94117 0.59541,0 2.42822,-1.04779 3.06493,-1.75217 0.83029,-0.91854 0.78924,-0.10641 -0.0447,0.88469 -0.67507,0.80228 -3.19302,2.1675 -4.49957,2.43966 -1.1137,0.23198 -1.13068,0.73316 -0.0351,1.03566 1.11037,0.30659 4.8452,3.69743 7.27018,6.60058 2.18036,2.61029 2.93159,4.14688 2.93159,5.99632 0,0.80521 -0.0472,1.46401 -0.10488,1.46401 -0.57099,0 -3.97702,-1.67382 -4.6791,-2.29943 -0.49751,-0.44333 -1.7639,-1.57241 -2.81422,-2.50907 -1.05031,-0.93666 -2.26696,-2.19627 -2.70367,-2.79913 -1.0899,-1.50457 -1.63045,-1.72715 -4.27671,-1.76106 -2.03884,-0.0261 -2.40638,-0.10854 -3.29099,-0.73794 l -0.99582,-0.70854 -1.52375,0.76919 c -0.83807,0.42306 -3.05249,1.35646 -4.92095,2.07423 -4.518676,1.73584 -7.498238,3.01491 -7.498238,3.21883 0,0.35205 1.777022,0.66003 2.973372,0.51531 0.88293,-0.1068 1.71188,-0.47484 2.80363,-1.24476 0.85252,-0.60122 2.372006,-1.53208 3.376626,-2.06859 1.80218,-0.96243 1.85661,-0.9733 4.07554,-0.81441 2.63091,0.18839 6.73014,0.98003 7.66196,1.47968 1.37181,0.73557 1.97855,2.24223 0.77635,1.92785 -0.35269,-0.0922 -0.49811,-0.018 -0.44594,0.22768 0.11947,0.56255 -2.11341,0.59821 -5.19223,0.0829 -1.46732,-0.24558 -2.94273,-0.55029 -3.27869,-0.67711 -1.03996,-0.3926 -4.44722,-0.33286 -5.04882,0.0885 -0.50387,0.35292 -0.40525,0.41823 1.50186,0.99453 4.23568,1.27995 6.13024,1.58163 9.97863,1.5889 3.55921,0.007 3.76981,0.0381 5.38157,0.80054 0.92257,0.43645 2.00545,0.79354 2.40639,0.79354 0.79598,0 1.60475,0.71057 1.60475,1.4099 0,0.63692 -1.02475,0.53319 -3.80126,-0.38477 z m -4.13624,-5.3796 c 0,-0.0666 -0.50636,-0.41788 -1.12524,-0.78057 -0.98365,-0.57646 -1.56629,-0.68272 -4.63021,-0.84447 -1.92773,-0.10177 -3.50497,-0.12171 -3.50497,-0.0443 0,0.0774 1.0418,0.46248 2.31511,0.85572 1.2733,0.39323 2.43416,0.75502 2.57968,0.80398 0.40918,0.13765 4.36563,0.14639 4.36563,0.01 z m -12.96458,-12.09517 c -1.514576,-1.24168 -1.973716,-2.74891 -1.154846,-3.79098 0.410466,-0.52235 0.413596,-0.52169 0.243106,0.0511 -0.312636,1.0504 1.51556,3.83291 2.22874,3.39214 0.16061,-0.0993 0.21905,-0.41039 0.12986,-0.69139 -0.21031,-0.66265 0.7022,-2.14129 1.62685,-2.63615 0.97214,-0.52028 2.94049,-0.46551 4.12489,0.11477 1.70151,0.83362 3.02147,2.54766 1.96192,2.54766 -0.20047,0 -0.5127,0.17859 -0.69386,0.39687 -0.47276,0.56964 -0.79759,0.48906 -0.72448,-0.17974 0.0487,-0.44529 -0.16036,-0.66339 -0.91773,-0.9576 -1.2428,-0.48276 -1.86904,-0.31296 -3.53464,0.95843 -1.73091,1.32124 -2.43907,1.49235 -3.28981,0.79489 z m 24.87418,-17.18695 c -1.40316,-0.62199 -2.12002,-1.21958 -2.12002,-1.76729 0,-0.34512 0.0604,-0.3425 0.46302,0.0201 1.44185,1.29849 5.07212,2.45801 5.50463,1.75819 0.082,-0.1326 0.64799,-0.23305 1.25786,-0.22322 l 1.10887,0.0179 -1.32292,0.36734 c -1.82744,0.50744 -3.48905,0.44868 -4.89144,-0.17298 z m 0.34854,-1.27774 c -0.4613,-0.10987 -1.29474,-0.43615 -1.85208,-0.72508 -0.55735,-0.28892 -1.16516,-0.49343 -1.3507,-0.45446 -0.18554,0.039 -0.2153,0.0103 -0.0661,-0.0636 0.66909,-0.33183 -0.13443,-3.52998 -0.8869,-3.52998 -0.19649,0 -0.66106,0.30381 -1.03239,0.67514 -0.58324,0.58324 -0.64218,0.79009 -0.43295,1.51961 0.1332,0.46445 0.24219,0.84795 0.24219,0.85222 0,0.004 -0.47625,0.008 -1.05834,0.008 -1.01985,0 -1.05833,-0.0316 -1.05833,-0.86879 0,-1.42257 0.92419,-3.02848 2.20966,-3.83959 0.63421,-0.40018 1.23123,-0.7276 1.32669,-0.7276 0.0955,0 0.6783,-0.22799 1.29518,-0.50664 1.68355,-0.76049 2.76999,-0.81574 4.95805,-0.25213 3.68008,0.94791 7.07822,3.10783 6.83781,4.34622 -0.0751,0.38662 -0.3181,0.27175 -1.39197,-0.65786 -1.2859,-1.11318 -3.33079,-2.20567 -4.6922,-2.50683 -0.38586,-0.0854 -1.27883,-0.074 -1.98438,0.0251 -1.09019,0.15326 -1.18348,0.20866 -0.62134,0.369 0.3638,0.10377 1.022,0.20054 1.46267,0.21505 2.1448,0.0706 6.45512,3.11099 6.88289,4.85501 0.31275,1.27508 -0.71156,0.89012 -2.35047,-0.88335 -0.81881,-0.88602 -1.634,-1.56253 -1.81153,-1.50335 -0.17754,0.0592 -0.42499,0.50197 -0.54989,0.98399 -0.33775,1.30342 -0.99174,2.15895 -1.95946,2.56329 -0.94575,0.39516 -0.91258,0.39348 -2.11607,0.10686 z m 2.02676,-3.31483 c 0.26567,-0.32011 0.242,-0.42627 -0.1266,-0.56772 -0.41622,-0.15972 -0.91464,0.25139 -0.92508,0.76303 -0.007,0.34712 0.71239,0.21351 1.05168,-0.19531 z m -38.891148,0.89233 c -0.50933,-0.15276 -1.78415,-0.92175 -2.83294,-1.70885 -1.69117,-1.26919 -1.98495,-1.40141 -2.59691,-1.16874 -0.76752,0.29181 -1.97849,0.35225 -1.97849,0.0987 0,-0.47254 2.02506,-1.87971 4.36563,-3.03358 3.7853,-1.86611 6.73957,-2.1627 10.449292,-1.04905 1.12182,0.33677 1.06008,0.33602 1.06008,0.0129 0,-0.14552 -0.17902,-0.26458 -0.39783,-0.26458 -0.21881,0 -0.82702,-0.23003 -1.35158,-0.51118 -2.215612,-1.1875 -8.315732,-0.91105 -11.053502,0.50093 -1.66238,0.85736 -2.01375,0.95334 -2.01375,0.55012 0,-0.46076 1.43873,-1.60241 2.38125,-1.88955 3.58222,-1.09135 6.22502,-1.26521 10.186462,-0.67012 3.64634,0.54775 7.276036,2.65369 7.276036,4.22153 0,0.63496 -0.69026,2.56077 -0.91784,2.56077 -0.26059,0 -2.168706,-1.35592 -2.798206,-1.98841 -0.54814,-0.55076 -3.12245,-1.63235 -3.29765,-1.38551 -0.026,0.0367 -0.32506,0.7491 -0.66456,1.58324 -1.032482,2.53675 -2.508282,3.44547 -4.874672,3.00153 -0.6715,-0.12597 -0.94082,-0.31527 -0.94082,-0.66128 0,-0.26663 -0.16579,-0.62237 -0.36841,-0.79053 -0.20263,-0.16817 -0.51473,-0.659 -0.69356,-1.09073 -0.26812,-0.64731 -0.47919,-0.78498 -1.20348,-0.78498 -1.34596,0 -1.38296,0.49189 -0.1172,1.55829 1.63907,1.38092 3.1607,2.14588 4.26848,2.14588 1.29489,0 4.948612,-0.76397 5.840092,-1.22113 1.22658,-0.62899 1.19374,-0.39121 -0.053,0.38382 -0.65484,0.40707 -1.68874,0.93646 -2.297552,1.17643 -1.42528,0.56177 -4.18923,0.77981 -5.37537,0.42404 z m 15.213538,-8.43608 c -0.0899,-0.14552 -0.0374,-0.26458 0.11668,-0.26458 0.15411,0 0.2802,0.11906 0.2802,0.26458 0,0.14552 -0.0525,0.26458 -0.11668,0.26458 -0.0642,0 -0.19026,-0.11906 -0.2802,-0.26458 z m 30.22865,-14.72732 c 0.1819,-0.0734 0.47955,-0.0734 0.66145,0 0.18191,0.0734 0.0331,0.13345 -0.33072,0.13345 -0.36381,0 -0.51263,-0.0601 -0.33073,-0.13345 z m 0.81028,-4.76801 c 0.191,-0.07643 0.4192,-0.06703 0.50712,0.02089 0.0879,0.08792 -0.0683,0.150453 -0.34727,0.138964 -0.30822,-0.01269 -0.37091,-0.07539 -0.15985,-0.159852 z m 4.08375,53.1486 c 0.98423,-0.91796 1.69566,-2.94207 2.17961,-6.20126 0.22212,-1.49597 0.65876,-3.37333 0.97029,-4.17192 1.06105,-2.71989 0.91139,-9.07224 -0.22265,-9.45025 -0.37053,-0.12351 -0.65361,2.51857 -0.45298,4.22797 0.0897,0.76399 0.0365,2.46063 -0.11822,3.77031 -0.24963,2.11363 -0.45748,2.72322 -1.84934,5.42396 -1.531,2.97073 -2.8802,6.88453 -2.5548,7.41104 0.20548,0.33248 1.06128,-0.0895 2.04809,-1.00985 z m -71.530118,-14.2064 c -0.0292,-2.01749 -0.33932,-3.96875 -0.63083,-3.96875 -0.37953,0 -1.45267,2.26231 -1.45587,3.06916 -0.001,0.37835 0.36707,1.1984 0.81905,1.82234 0.97527,1.34633 1.29707,1.11209 1.26765,-0.92275 z m -0.94034,-7.60677 c -0.23194,-2.11226 -0.94541,-5.09195 -1.47297,-6.15156 -1.51387,-3.04065 -4.45403,-4.51255 -5.74234,-2.87473 -0.3016,0.38342 -0.54655,1.0085 -0.54432,1.38906 0.002,0.38714 0.0897,0.56195 0.19844,0.39685 0.33598,-0.51001 1.39442,-0.69127 2.16723,-0.37116 1.10773,0.45883 3.43167,4.05636 4.10507,6.35477 0.15717,0.53643 1.21542,2.37256 1.37139,2.37944 0.0225,0.001 -0.0146,-0.5042 -0.0825,-1.12267 z m -35.08742,-8.29579 c -0.0879,-0.0879 -0.31612,-0.0973 -0.50712,-0.0209 -0.21107,0.0845 -0.14837,0.14715 0.15985,0.15985 0.27892,0.0115 0.43519,-0.0511 0.34727,-0.13897 z M 145.06558,96.17578 c 0.14576,-0.23585 -1.14779,-0.93956 -1.3519,-0.73545 -0.0642,0.0642 -0.42727,-0.0443 -0.80673,-0.24113 -0.37947,-0.19687 -0.80581,-0.28633 -0.94743,-0.19881 -0.33133,0.20478 0.57201,0.87212 1.18055,0.87212 0.25464,0 0.53657,0.11906 0.6265,0.26458 0.19972,0.32315 1.10651,0.35016 1.29901,0.0387 z m -14.1313,-1.2137 c 0,-0.0642 -0.11906,-0.19026 -0.26458,-0.2802 -0.14552,-0.0899 -0.26458,-0.0374 -0.26458,0.11668 0,0.15411 0.11906,0.2802 0.26458,0.2802 0.14552,0 0.26458,-0.0525 0.26458,-0.11668 z m 10.58334,-5.961945 c 0,-0.347921 -1.14997,-0.917229 -2.89926,-1.435324 -1.68236,-0.498271 -1.47077,-0.159781 0.55701,0.891088 1.49575,0.775153 2.34225,0.971841 2.34225,0.544236 z m 10.05416,-1.308689 c 0,-0.256893 -0.68659,-0.429461 -2.64583,-0.665 -0.65485,-0.07872 -1.01203,-0.07639 -0.79375,0.0052 0.21828,0.08158 0.635,0.25254 0.92604,0.379919 1.11369,0.487424 2.51354,0.643306 2.51354,0.279897 z m 0.50712,-2.776627 c -0.0606,-0.06037 -2.13416,-0.77967 -4.60784,-1.598436 -4.38133,-1.450183 -7.83414,-2.155253 -7.44123,-1.51951 0.2001,0.323772 1.31653,0.675231 6.11799,1.925981 1.74625,0.454887 3.41313,0.925809 3.70417,1.046495 0.53757,0.22291 2.42875,0.34645 2.22691,0.14547 z m -33.02238,-0.882416 c -0.5651,-1.027228 -1.61599,-2.261271 -1.61599,-1.897624 0,0.213397 0.36586,0.831841 0.81301,1.37432 0.86713,1.051971 1.22049,1.282262 0.80298,0.523304 z M 151.688,81.85636 c 0.47834,-0.175069 0.46211,-0.230921 -0.23978,-0.824881 -1.07385,-0.908723 -2.11938,-2.093807 -2.16102,-2.449468 -0.0196,-0.167362 -0.0513,-0.423358 -0.0704,-0.568878 -0.0191,-0.145521 -0.39004,-0.667671 -0.82427,-1.160333 -0.43424,-0.492662 -0.78953,-0.949827 -0.78953,-1.015923 0,-0.0661 0.25707,-0.328335 0.57127,-0.582755 0.32145,-0.260301 0.48817,-0.597018 0.38126,-0.770014 -0.5451,-0.881989 -2.92646,0.275507 -5.3552,2.602983 l -1.51853,1.455208 0.82709,0.08165 c 0.45489,0.04491 1.18594,-0.103919 1.62454,-0.330729 1.05934,-0.547807 1.47389,-0.521705 2.77209,0.17454 2.41291,1.294084 2.49136,1.794328 0.2814,1.794328 -0.79375,0 -1.64993,0.110371 -1.90261,0.245269 -0.25269,0.134898 -0.69756,0.327354 -0.9886,0.427679 -0.40737,0.140427 -0.43782,0.210221 -0.13229,0.303244 0.57252,0.174311 1.65567,0.635648 2.11667,0.901535 0.42504,0.245149 4.55503,0.02867 5.40788,-0.283458 z m -32.39538,-1.314684 c 0,-0.13727 -0.70585,-0.588357 -1.56856,-1.002416 -0.86271,-0.414059 -1.49507,-0.629169 -1.40526,-0.478022 0.25176,0.423678 1.17002,1.037044 2.04759,1.367723 0.43666,0.164539 0.8237,0.313367 0.86008,0.330729 0.0364,0.01736 0.0662,-0.08074 0.0662,-0.218014 z m 3.55864,-1.308797 c -0.13824,-0.129504 -1.14432,-0.616407 -2.23573,-1.082008 -3.42408,-1.460735 -4.04286,-1.861262 -6.28825,-4.070286 -2.36092,-2.322676 -3.28928,-2.880564 -3.83342,-2.303642 -0.26355,0.279423 -0.25589,0.375906 0.0383,0.482793 0.42675,0.155045 3.3824,2.616863 4.924,4.101288 0.58208,0.560497 1.62658,1.313717 2.3211,1.673822 1.75091,0.907834 5.77966,1.85907 5.074,1.198033 z m 21.77467,-5.377444 c 2.83344,-0.811571 3.47511,-1.830291 0.81482,-1.293619 -0.77528,0.156399 -2.83834,0.467291 -4.58459,0.69087 -4.45943,0.57096 -4.89479,0.652856 -4.89479,0.920764 0,0.682519 5.93145,0.464817 8.66456,-0.318015 z m -4.43123,-1.65432 c 0.65484,-0.07889 2.32172,-0.210481 3.70417,-0.292424 3.534,-0.209474 3.52559,-0.202393 1.95977,-1.650568 -0.7379,-0.682453 -1.65757,-1.74172 -2.04372,-2.353927 -0.86114,-1.365288 -1.5379,-1.755142 -2.64355,-1.522852 -1.27009,0.266837 -4.19475,1.712956 -4.0914,2.023019 0.0498,0.149395 0.55072,0.42983 1.11316,0.623188 1.74874,0.601186 1.96485,1.620419 0.54777,2.583352 -0.93122,0.632775 -1.0132,1.000313 -0.18453,0.827183 0.24624,-0.05144 0.98348,-0.158081 1.63833,-0.236971 z m -7.22714,-2.767003 c 2.03848,-0.789622 6.47908,-3.484208 7.227,-4.38539 0.18707,-0.225409 0.25357,-0.496255 0.14778,-0.601879 -0.1058,-0.105624 -1.40963,-0.158818 -2.89741,-0.11821 -1.96804,0.05372 -2.96887,-0.03639 -3.67331,-0.330729 -1.27241,-0.531646 -1.50448,-0.510724 -1.38213,0.124604 0.0728,0.377943 -0.0405,0.529167 -0.39645,0.529167 -0.73731,0 -0.85065,0.396044 -0.26501,0.926041 0.28418,0.257178 0.46392,0.552977 0.39943,0.657331 -0.0645,0.104354 0.17673,0.588215 0.53605,1.075246 0.90241,1.223148 0.55506,1.446767 -2.20685,1.420764 -2.78846,-0.02625 -4.49656,-0.515072 -7.32759,-2.096994 -1.16416,-0.650513 -3.10091,-1.676118 -4.30387,-2.279122 -2.06771,-1.03647 -2.32791,-1.099675 -4.7625,-1.156844 -1.41641,-0.03326 -2.15857,-0.009 -1.64925,0.05396 1.17677,0.145413 1.61887,0.546479 0.99219,0.900078 -0.25467,0.143689 -0.46302,0.422786 -0.46302,0.620215 0,0.289096 0.1832,0.302736 0.94127,0.07008 0.9014,-0.276646 1.16765,-0.174723 6.28386,2.405497 2.93841,1.481911 5.81882,2.80876 6.40091,2.948554 1.75418,0.421286 4.04903,0.147878 6.3989,-0.762364 z m -39.446678,-0.05742 c 0.50224,-0.564633 0.50191,-0.565347 -0.0913,-0.200938 -0.32742,0.201139 -0.59531,0.456129 -0.59531,0.566645 0,0.319016 0.14735,0.24053 0.68659,-0.365707 z m 14.310028,-3.176678 c 0.6083,-0.415026 1.2305,-0.754592 1.38267,-0.754592 0.15216,0 0.66649,-0.23768 1.14295,-0.528178 1.02425,-0.624483 0.69896,-0.681021 -0.82489,-0.143373 -0.60295,0.21273 -1.25306,0.326612 -1.44471,0.253071 -0.36758,-0.141053 -2.55265,1.810271 -2.55265,2.279578 0,0.323224 0.68433,-0.0065 2.29663,-1.106506 z m 1.93671,0.568324 c 0.34202,-0.221032 0.33503,-0.25704 -0.0505,-0.260532 -0.24607,-0.0022 -0.52099,0.115011 -0.61092,0.260532 -0.20696,0.334856 0.1433,0.334856 0.66146,0 z m 2.08036,-0.808996 c 0.48935,-0.29834 0.81799,-0.614181 0.7303,-0.701869 -0.20506,-0.205053 -2.2815,0.724987 -2.2815,1.021882 0,0.377161 0.61614,0.250051 1.5512,-0.320013 z m 18.75006,-1.996689 c -0.0879,-0.08792 -0.31612,-0.09732 -0.50712,-0.02089 -0.21106,0.08446 -0.14837,0.147157 0.15985,0.159853 0.27892,0.01149 0.43519,-0.05105 0.34727,-0.138963 z m 0.83494,-1.110367 c -0.34704,-0.262058 -1.28583,-0.882545 -2.0862,-1.378859 -0.80036,-0.496315 -2.11005,-1.431998 -2.91041,-2.079296 -1.78494,-1.443576 -4.99537,-2.985823 -7.81002,-3.751833 -1.16152,-0.31611 -2.7667,-0.844244 -3.56707,-1.173631 -1.12649,-0.463602 -2.3816,-0.664538 -5.55625,-0.889527 -2.25557,-0.159853 -4.68101,-0.471013 -5.38987,-0.691466 -0.70886,-0.220453 -1.58847,-0.325618 -1.9547,-0.233702 -0.50814,0.127536 -0.77646,0.0205 -1.13278,-0.451888 l -0.46692,-0.61901 -3.663806,0.307549 c -2.015082,0.169152 -4.260402,0.419004 -4.989582,0.555227 -1.48009,0.276505 -5.04733,1.819864 -4.79335,2.073838 0.0898,0.08977 0.99731,0.0058 2.01675,-0.186512 1.42724,-0.269302 2.00849,-0.279123 2.52738,-0.0427 0.37062,0.168868 0.90639,0.307032 1.19058,0.307032 0.58826,0 0.66281,0.277238 0.19922,0.740834 -0.60608,0.606081 0.54349,0.348501 1.69838,-0.38055 1.340282,-0.84608 3.654652,-1.941646 4.109222,-1.945199 0.81856,-0.0064 0.24582,0.996795 -0.98694,1.72867 -0.72471,0.430258 -1.32002,0.871584 -1.32291,0.980724 -0.008,0.301847 0.14344,0.252654 1.42534,-0.46302 0.65163,-0.363802 1.3107,-0.661459 1.4646,-0.661459 0.46957,0 0.3143,0.989424 -0.38165,2.432065 -0.83559,1.732102 -0.83559,2.057101 0,1.272102 0.3638,-0.341774 0.66146,-0.779247 0.66146,-0.972162 0,-0.338033 0.639956,-0.484863 1.693946,-0.388655 0.27683,0.02527 0.78284,-0.137205 1.12448,-0.361052 0.76208,-0.499339 0.76947,-0.411834 0.0658,0.780704 -0.30541,0.51764 -0.48798,0.941165 -0.40571,0.941165 0.0823,0 0.74622,-0.529887 1.47543,-1.177526 1.28431,-1.140652 2.81101,-1.733608 3.44875,-1.339463 0.16134,0.09971 0.43696,0.07283 0.61248,-0.05974 0.92809,-0.700959 4.68477,-1.180706 4.68477,-0.598269 0,0.145521 -0.0893,0.265336 -0.19844,0.266256 -0.10914,9.2e-4 -0.40126,0.358108 -0.64915,0.79375 -0.24789,0.435643 -0.62211,0.792077 -0.83159,0.792077 -0.20948,0 -0.44941,0.178594 -0.53317,0.396875 -0.0838,0.218281 -0.12622,0.396875 -0.0944,0.396875 0.0319,0 0.84758,-0.165213 1.81269,-0.367141 3.57541,-0.748073 8.31016,0.396401 13.56005,3.277708 1.72599,0.947283 5.70613,2.597419 6.35037,2.632819 0.12876,0.0071 -0.0498,-0.201547 -0.39688,-0.463605 z m -19.01953,-6.488888 c 0,-0.22646 0.11859,-0.485043 0.26355,-0.574628 0.39698,-0.24535 2.77024,-0.251433 3.16395,-0.0081 0.51822,0.320278 -0.1012,0.582163 -1.90615,0.8059 -1.28113,0.158806 -1.52135,0.123569 -1.52135,-0.223163 z m -6.35,5.266504 c 0.80036,-0.226343 1.87193,-0.417713 2.38125,-0.425267 l 0.92604,-0.01373 -0.7299,-0.395936 c -0.40145,-0.217765 -1.05629,-0.361826 -1.45521,-0.320136 -0.63422,0.06628 -0.71377,-0.0057 -0.63342,-0.57327 0.0838,-0.592271 0.0491,-0.616674 -0.39688,-0.27886 -0.98002,0.742316 -2.47313,2.232145 -2.47313,2.467694 0,0.13296 0.20836,0.176337 0.46302,0.09639 0.25466,-0.07994 1.11786,-0.330542 1.91823,-0.556885 z m -9.524996,-0.682397 c 0,-0.145521 -0.0525,-0.264583 -0.11668,-0.264583 -0.0642,0 -0.19026,0.119062 -0.2802,0.264583 -0.0899,0.145521 -0.0374,0.264583 0.11668,0.264583 0.15411,0 0.2802,-0.119062 0.2802,-0.264583 z m 16.076516,0.08279 c -0.25296,-0.06622 -0.72921,-0.06863 -1.05833,-0.0053 -0.32912,0.06329 -0.12215,0.117469 0.45993,0.120406 0.58209,0.0029 0.85137,-0.04884 0.5984,-0.115067 z m 34.09212,-2.141251 c -1.16064,-2.244425 -4.52267,-4.578422 -7.50458,-5.209838 -0.96568,-0.204483 -1.21773,0.24233 -0.26458,0.469034 2.71621,0.646043 5.42675,2.453552 7.23552,4.824967 0.82919,1.087119 1.11595,1.041893 0.53364,-0.08416 z m -36.41031,-2.57175 c 0.44959,-0.541715 -0.22852,-0.547775 -0.94162,-0.0084 -0.50351,0.380841 -0.50254,0.388626 0.0493,0.396875 0.3096,0.0046 0.71113,-0.170179 0.89229,-0.38846 z m 27.44501,-2.937977 c -0.0879,-0.08792 -0.31612,-0.09732 -0.50712,-0.02089 -0.21106,0.08446 -0.14837,0.147157 0.15985,0.159853 0.27892,0.01149 0.43519,-0.05105 0.34727,-0.138964 z m -11.30542,-3.533155 c 0,-0.139387 -0.52706,-0.562308 -1.17125,-0.939824 -0.96611,-0.566179 -1.44108,-0.672395 -2.71198,-0.606466 l -1.54073,0.07993 1.05833,0.480861 c 0.87275,0.39654 3.38412,1.129901 4.16719,1.216888 0.10914,0.01212 0.19844,-0.092 0.19844,-0.231387 z m -7.14375,-0.521421 c 0,-0.272021 -0.7402,-1.077233 -0.99026,-1.077233 -0.25238,0 -1.12641,0.853025 -1.12641,1.099341 0,0.122967 0.47625,0.223576 1.05833,0.223576 0.58209,0 1.05834,-0.110558 1.05834,-0.245684 z M 92.682442,47.55573 c 0.68075,-0.380479 1.17737,-0.752132 1.10361,-0.825896 -0.13873,-0.138731 -2.53927,1.181506 -2.53927,1.396536 0,0.206157 0.15863,0.143105 1.43566,-0.57064 z m -77.02021,164.12201 c -0.30982,-0.46407 -1.45361,-2.62971 -2.54176,-4.81252 -1.08815,-2.18281 -2.29051,-4.55203 -2.6719,-5.26493 -0.7414397,-1.38587 -0.8349297,-1.74653 -0.4527297,-1.74653 0.3017697,0 3.1032397,4.54161 4.3249797,7.01146 0.92361,1.86716 2.18794,5.37309 2.004,5.55703 -0.0546,0.0546 -0.35276,-0.28043 -0.66259,-0.74451 z m 5.49282,-6.33075 c -0.33774,-0.91123 -1.08215,-3.02599 -1.65423,-4.69948 -1.06608,-3.11856 -2.26979,-6.15457 -4.19607,-10.58333 -1.1312,-2.60075 -1.89712,-4.79905 -1.73023,-4.96594 0.13536,-0.13536 2.83468,4.27056 3.85629,6.29435 1.71545,3.39829 3.4833,8.71596 4.469,13.4427 0.45358,2.17504 -0.0101,2.49366 -0.74476,0.5117 z m 97.479588,0.45989 c 0.25488,-0.43656 0.66628,-1.03187 0.91421,-1.32291 1.92156,-2.2557 5.16278,-9.90024 5.74927,-13.5599 0.083,-0.51768 0.2926,-0.85989 0.52676,-0.85989 0.423,0 0.39883,0.23724 -0.35038,3.43958 -0.81105,3.46663 -2.07441,6.34478 -4.04213,9.20869 -1.25428,1.82554 -3.52003,4.33157 -2.79773,3.09443 z m 26.00351,-11.17104 c -0.10712,-9.06806 -0.0681,-10.83291 0.24435,-11.0623 0.21324,-0.15652 0.4629,-1.0593 0.58536,-2.11667 0.17845,-1.54078 0.23,-0.99596 0.31369,3.31564 0.14841,7.64524 0.0426,11.87924 -0.4099,16.39964 -0.22312,2.22898 -0.45075,4.09777 -0.50585,4.15287 -0.0551,0.0551 -0.15754,-4.75503 -0.22765,-10.68918 z m 12.23132,10.31672 c -0.013,-1.27557 2.28266,-7.36411 4.21701,-11.18422 1.95544,-3.86172 2.12353,-4.15024 2.12534,-3.64794 0.002,0.64868 -0.94646,3.13624 -2.24916,5.8969 -0.61802,1.30969 -1.62519,3.63141 -2.23815,5.15938 -0.61297,1.52797 -1.27976,3.13531 -1.48175,3.57187 -0.32075,0.69322 -0.36803,0.71906 -0.37329,0.20401 z m 4.77737,-2.77125 c -0.0115,-0.24781 0.0892,-0.72406 0.22385,-1.05833 0.13461,-0.33427 0.80939,-2.3937 1.4995,-4.57651 1.33812,-4.23242 3.07582,-9.40541 4.17729,-12.43542 0.61247,-1.68484 0.67416,-1.76612 0.68316,-0.90013 0.015,1.44789 -3.9287,13.38412 -5.77666,17.48378 -0.28347,0.62889 -0.57635,1.32203 -0.65083,1.54031 -0.10819,0.31705 -0.13963,0.30625 -0.15631,-0.0537 z m -21.55916,-4.35115 c -0.39991,-5.89036 -1.18964,-12.20866 -1.99585,-15.96807 -0.38081,-1.7757 -0.34349,-2.64583 0.11345,-2.64583 0.21551,0 0.46081,0.32742 0.54511,0.7276 0.0843,0.40019 0.20653,0.96573 0.27164,1.25678 1.09416,4.89116 2.14829,18.04792 1.4981,18.6981 -0.1882,0.18821 -0.32301,-0.45663 -0.43245,-2.06858 z m -77.063718,-0.37773 c -0.99858,-2.15204 -2.00028,-6.06534 -1.55256,-6.06534 0.26153,0 0.82981,1.5038 1.58991,4.2072 0.78468,2.79087 0.76852,3.59487 -0.0374,1.85814 z m -41.04452,-1.72232 c -0.31491,-1.4966 -0.89302,-5.20031 -1.5245,-9.76697 -1.14043,-8.24724 -2.59081,-14.40596 -4.11241,-17.4625 -0.19288,-0.38746 -0.11079,-0.35271 0.30653,0.12976 1.23515,1.42798 2.64952,5.10819 3.66159,9.52753 1.43689,6.27437 2.77479,17.38509 2.21408,18.38703 -0.22815,0.40768 -0.31551,0.27713 -0.54529,-0.81485 z m -8.19885,-1.62098 c -0.4428,-0.69675 -1.14273,-1.9812 -1.55539,-2.85433 -0.41266,-0.87312 -0.80983,-1.64736 -0.88259,-1.72053 -0.22595,-0.22722 -1.32291,-2.34208 -1.32291,-2.55048 0,-0.10858 0.29765,0.20603 0.66146,0.69914 0.3638,0.4931 0.66145,1.05202 0.66145,1.24203 0,0.19 0.0893,0.3464 0.19844,0.34753 0.10914,0.001 0.33192,0.26903 0.49506,0.59531 0.16315,0.32629 0.85432,1.64833 1.53594,2.93787 1.36045,2.57379 1.47638,3.29843 0.20854,1.30346 z m 120.115438,-4.70641 c -0.49156,-2.26169 -2.53855,-9.1945 -3.35018,-11.3465 -0.37784,-1.00182 -0.62458,-1.8839 -0.54831,-1.96016 0.20567,-0.20567 1.81354,3.43392 2.73324,6.18698 1.23447,3.6953 1.6804,5.73767 1.59151,7.2892 l -0.0812,1.41798 z m -6.62414,-1.98438 c 0,-0.3638 0.06,-0.51263 0.13345,-0.33073 0.0734,0.18191 0.0734,0.47956 0,0.66146 -0.0734,0.1819 -0.13345,0.0331 -0.13345,-0.33073 z m -68.113268,-1.38316 c -0.47529,-1.29599 -1.25497,-4.70766 -1.23773,-5.41594 0.0177,-0.72617 0.74503,1.4787 0.93369,2.83035 0.0914,0.65485 0.33679,1.71251 0.54531,2.35037 0.49387,1.5107 0.29692,1.70271 -0.24127,0.23522 z m -28.17635,-5.79484 c 0.0622,-0.78153 0.44417,-2.55205 0.84873,-3.9345 0.40455,-1.38244 0.81686,-2.98979 0.91624,-3.57187 0.36282,-2.12517 0.49423,0.2399 0.15173,2.73089 -0.55128,4.00951 -2.17859,8.06397 -1.9167,4.77548 z M 55.957352,180.08 c -0.37329,-1.26339 -1.19247,-5.11595 -1.33697,-6.2877 l -0.16315,-1.32291 0.83064,1.71979 c 1.81121,3.75 2.2083,5.02708 1.56308,5.02708 -0.14552,0 -0.26459,0.2311 -0.26459,0.51355 0,0.68518 -0.45516,0.93858 -0.62901,0.35019 z m -27.62605,-4.24142 c -0.39593,-1.9169 -0.71304,-5.00622 -0.49338,-4.80647 0.18745,0.17045 0.86429,3.51142 1.05499,5.20759 0.1849,1.64448 -0.19517,1.37303 -0.56161,-0.40112 z m 104.322768,-2.01934 c -0.7276,-0.31464 -1.57341,-0.71219 -1.87958,-0.88344 -0.89089,-0.49833 -2.93627,-2.29877 -2.35375,-2.07189 0.29104,0.11335 1.45088,0.54374 2.57743,0.95641 2.97538,1.08994 3.50799,1.38653 3.50799,1.9535 0,0.69767 -0.32529,0.70564 -1.85209,0.0454 z m -89.568748,-7.77051 c -1.78466,-1.07726 -4.43483,-2.9323 -4.62212,-3.23535 -0.23832,-0.38561 -0.0107,-0.33826 1.80616,0.37567 2.24127,0.8807 3.55329,1.20733 4.85655,1.20907 1.2276,0.002 2.46462,0.38449 2.46462,0.76279 0,0.13489 -0.35876,0.37032 -0.79724,0.52317 -0.43848,0.15286 -0.86794,0.46216 -0.95435,0.68734 -0.23882,0.62236 -1.41667,0.48433 -2.75362,-0.32269 z m -1.83498,-10.68717 c -0.94049,-0.13577 -1.77393,-0.31114 -1.85208,-0.38969 -0.0781,-0.0786 0.12024,-0.35553 0.44088,-0.6155 0.47919,-0.38852 0.52628,-0.55024 0.26447,-0.90828 -0.29421,-0.40235 -0.36531,-0.40283 -0.93149,-0.006 -0.33713,0.23614 -0.55064,0.59177 -0.47446,0.79029 0.20784,0.54163 -0.26562,0.70622 -1.45401,0.50544 -0.64532,-0.10903 -1.12153,-0.35285 -1.20491,-0.61693 -0.0758,-0.24016 -0.25973,-0.69238 -0.40869,-1.00493 -0.52471,-1.10098 1.09345,-4.59352 1.97205,-4.25637 0.41807,0.16043 0.35268,1.36365 -0.10581,1.94684 -0.1285,0.16346 -0.15873,0.4924 -0.0672,0.73098 0.0916,0.23858 0.0526,0.58109 -0.0866,0.76114 -0.13921,0.18004 -0.32739,0.53572 -0.41817,0.79038 -0.13431,0.37676 -0.0126,0.46302 0.65346,0.46302 0.77893,0 0.81037,-0.0408 0.64997,-0.84273 -0.10514,-0.52573 -0.005,-1.27214 0.26746,-1.98437 0.42912,-1.12364 0.80813,-1.38323 1.30338,-0.89269 0.13825,0.13693 1.50151,0.50701 3.02948,0.82242 1.52797,0.3154 2.8656,0.70938 2.97251,0.87551 0.38012,0.59068 0.1917,1.13657 -0.59235,1.71624 -0.64954,0.48023 -0.89595,0.53354 -1.34795,0.29164 -0.50476,-0.27014 -0.53536,-0.24199 -0.34997,0.322 0.32984,1.00347 0.27117,1.65677 -0.15307,1.70428 -0.21828,0.0244 -1.16637,-0.0667 -2.10686,-0.20242 z m 1.32241,-0.89505 c 0.47172,-0.56839 0.0334,-0.88533 -1.00149,-0.72413 -1.00848,0.15709 -1.09135,0.41056 -0.26458,0.80929 0.80599,0.38872 0.87674,0.38396 1.26607,-0.0852 z m 0.8492,-2.10546 c 0.097,-0.50765 0.0156,-0.66146 -0.35041,-0.66146 -0.57577,0 -0.87304,0.41518 -0.67213,0.93872 0.23708,0.61784 0.88502,0.44216 1.02254,-0.27726 z m -2.59074,-0.17476 c 0.68504,-0.31212 0.94707,-1.2853 0.34317,-1.27456 -0.56085,0.01 -1.60905,0.96107 -1.4115,1.28073 0.22934,0.37107 0.24052,0.371 1.06833,-0.006 z M 195.49262,54.830502 c -4.7802,-1.523161 -9.50729,-2.956036 -15.61042,-4.731832 -2.4011,-0.698633 -5.79438,-1.708879 -7.54063,-2.24499 -1.74625,-0.536112 -4.54422,-1.387754 -6.2177,-1.892539 -1.67349,-0.504785 -4.3524,-1.340587 -5.95313,-1.857339 -1.60073,-0.516751 -4.99401,-1.57044 -7.54062,-2.34153 -2.54662,-0.771089 -6.71381,-2.059227 -9.26042,-2.862527 -2.54662,-0.8033 -7.48771,-2.30114 -10.98021,-3.328533 -3.4925,-1.027393 -6.70719,-1.982419 -7.14375,-2.122279 -0.43656,-0.139861 -2.2225,-0.630801 -3.96875,-1.090978 -1.74625,-0.460178 -6.09203,-1.646735 -9.65729,-2.636795 -3.56526,-0.990059 -7.79198,-2.161653 -9.39271,-2.60354 -1.60073,-0.441888 -4.398696,-1.214809 -6.217706,-1.717603 -1.819012,-0.502794 -5.986202,-1.691356 -9.260422,-2.641249 -5.96798,-1.73139 -12.59135,-3.628314 -22.225,-6.365215 -2.83765,-0.806173 -8.13593,-2.370049 -11.77395,-3.47528 C 42.676892,9.8580897 38.931872,8.7378197 33.303032,7.1010247 23.708742,4.3111236 18.099932,2.713181 15.575952,2.0506014 11.013932,0.85300832 9.7551123,0.36784652 9.7551123,-0.19281188 c 0,-0.6061778 0.3975497,-0.6333059 1.9089897,-0.1302683 2.03011,0.6756628 20.8598,6.14125188 27.85664,8.08579388 1.45521,0.404428 4.13411,1.175899 5.95312,1.714382 1.81901,0.5384823 3.90261,1.1393193 4.63021,1.3351943 0.72761,0.195874 3.34698,0.97002 5.82084,1.720323 5.32164,1.614018 15.37078,4.523833 18.9177,5.477787 4.17465,1.122781 22.864542,6.532278 36.380208,10.529685 0.72761,0.215197 3.34698,0.970746 5.82084,1.678998 5.79454,1.658947 18.52966,5.414282 25.79687,7.606984 3.1287,0.944009 6.46245,1.944171 7.40834,2.222583 0.94588,0.278413 6.54182,1.988563 12.43541,3.800335 10.32859,3.175151 15.29529,4.679167 20.6375,6.249446 1.38245,0.406354 5.13292,1.537997 8.33438,2.514761 3.20146,0.976765 6.44591,1.958475 7.20989,2.181578 1.03266,0.301563 1.38907,0.531956 1.38907,0.89794 0,0.270764 -0.14883,0.481554 -0.33073,0.468423 -0.1819,-0.01313 -2.1762,-0.611915 -4.43177,-1.330631 z m -0.52917,-7.266924 c -5.60561,-1.588168 -10.10957,-2.942616 -17.59479,-5.291172 -9.39199,-2.946819 -9.17878,-2.878642 -13.89063,-4.441736 -2.40109,-0.796532 -5.73484,-1.86902 -7.40833,-2.383307 -9.05954,-2.784127 -11.30415,-3.477777 -14.68438,-4.537897 -13.29674,-4.170182 -18.80561,-5.862496 -22.88645,-7.030679 -2.54662,-0.728993 -5.07518,-1.495811 -5.61904,-1.704039 -0.54385,-0.208228 -2.1512,-0.7284 -3.57187,-1.155937 -8.98416,-2.703682 -10.181836,-3.046533 -15.812218,-4.526426 -5.08488,-1.336513 -9.58051,-2.610872 -12.56771,-3.562516 -5.0186,-1.598798 -14.07725,-4.3233113 -18.38854,-5.5306033 -2.32833,-0.652005 -6.13833,-1.729368 -8.46667,-2.39414 -4.49044,-1.2820837 -8.67227,-2.441363 -14.2875,-3.9607542 -6.38687,-1.72818648 -8.9732,-2.4731062 -16.13958,-4.6485567 -3.92906,-1.19272 -8.63203,-2.609765 -10.45104,-3.148989 -3.2930097,-0.976172 -3.3076497,-0.984073 -3.3901997,-1.829444 -0.0594,-0.607812 0.0275,-0.849038 0.3055797,-0.849038 0.21367,0 3.52519,1.027365 7.35895,2.283035 3.83375,1.255669 8.04202,2.569619 9.35171,2.919888 4.24355,1.134917 6.62561,1.852963 17.85937,5.3835163 5.05422,1.5884432 4.6807,1.5725467 5.27534,0.2245084 0.53796,-1.21956838 1.47843,-4.6891767 1.30766,-4.8242717 -0.26441,-0.20917 -7.05181,-2.023779 -7.55957,-2.021046 -0.31883,0.0017 -0.65328,-0.115943 -0.74322,-0.261464 -0.0944,-0.152732 0.15067,-0.26263 0.5797,-0.259964 1.02788,0.0064 5.09732,0.692735 5.90259,0.995523 0.36381,0.136792 1.10206,0.329199 1.64057,0.42757 l 0.9791,0.178858 0.41108,-1.384248 c 0.22609,-0.761336 0.32128,-1.465108 0.21152,-1.563938 -0.26095,-0.234974 -3.6525,-1.568801 -3.98902,-1.568801 -0.1428,0 -1.96796,-0.666799 -4.05592,-1.4817748 -2.08796,-0.814976 -6.46769,-2.490057 -9.73274,-3.722402 -3.26506,-1.232345 -6.7774,-2.578964 -7.80521,-2.992488 -1.02781,-0.413523 -3.17844,-1.263301 -4.77917,-1.888395 -3.9488,-1.542029 -4.22087,-1.821189 -1.77495,-1.821189 1.97615,0 3.9013,0.576061 17.58376,5.261586 2.14641,0.735032 4.08118,1.267882 4.29948,1.18411 0.55562,-0.213212 0.49435,-0.983843 -0.12262,-1.542194 -0.28575,-0.258598 -2.69676,-1.210043 -5.35781,-2.114324 -2.66105,-0.90428 -5.37406,-1.891746 -6.0289,-2.194368 l -1.19062,-0.550223 1.36711,-0.02229 c 1.36411,-0.02224 4.53432,0.902882 9.14647,2.669106 1.1258,0.431127 2.1676,0.709281 2.3151,0.618119 0.14751,-0.09116 0.26819,-0.498142 0.26819,-0.904401 0,-0.40626 0.13612,-1.12912 0.30248,-1.606357 l 0.30249,-0.867704 1.81951,0.169106 c 1.00898,0.09378 2.25738,0.403788 2.80245,0.69593 1.30595,0.699948 1.87751,0.664672 2.1814,-0.134634 0.20261,-0.532883 0.43277,-0.661458 1.18408,-0.661458 h 0.93259 l -0.0124,1.918229 c -0.007,1.055026 -0.10959,3.45603 -0.22833,5.335565 -0.11875,1.879535 -0.1588,3.6357068 -0.089,3.9026038 0.10471,0.400415 0.39578,0.485268 1.66464,0.485268 2.16384,0 2.47572,0.365673 2.23845,2.6246 -0.10058,0.957563 -0.46948,3.156382 -0.81977,4.886264 -0.35029,1.72988132 -0.63689,3.642336 -0.63689,4.2498991 0,1.0697835 0.0411,1.1226053 1.3017,1.6730409 2.28182,0.9963439 2.57457,1.0062509 3.04169,0.1029399 0.22711,-0.4391818 0.89277,-3.2776615 1.47925,-6.3077329 1.23858,-6.399187 2.56017,-12.4624318 3.04629,-13.9758858 0.18696,-0.582083 0.60623,-1.921536 0.93172,-2.976562 0.47355,-1.53499 0.6963,-1.918229 1.11495,-1.918229 0.40715,0 0.49249,0.13202 0.38483,0.595312 -0.0761,0.327422 -0.62492,2.500312 -1.21962,4.828646 -0.59469,2.328333 -1.62723,6.6741138 -2.29452,9.6572908 -0.6673,2.983177 -1.32402,5.90020832 -1.45938,6.48229162 -0.4768,2.05028558 -0.81494,4.39777628 -0.68299,4.74161728 0.17092,0.445421 1.53695,0.714113 1.9393,0.381452 0.19953,-0.16498 0.37078,-0.151042 0.48872,0.03978 0.0999,0.161563 0.4974,0.418463 0.88345,0.570887 1.34344,0.530438 11.03644,3.432177 21.13009,6.3255993 3.5229,1.009867 6.73759,1.963722 7.14375,2.119679 0.40616,0.155958 3.00067,0.920454 5.765562,1.698881 2.764896,0.778427 7.079856,2.018607 9.588806,2.755957 2.50896,0.73735 4.70708,1.370751 4.88472,1.407559 0.4082,0.08458 1.26346,-1.60936 2.43756,-4.827868 2.56214,-7.0234843 6.03201,-15.45178838 6.62101,-16.08243288 0.25533,-0.2733818 0.52036,-0.175613 1.35718,0.5006488 1.40098,1.13218758 4.83456,2.74328438 10.7077,5.02424478 14.14819,5.4947543 16.81692,6.6051583 17.65042,7.3439763 0.40314,0.357349 0.59531,0.826182 0.59531,1.452381 0,0.508581 0.19177,1.673243 0.42615,2.588139 0.23439,0.914895 0.44177,2.680684 0.46086,3.923974 0.031,2.020152 -0.0524,2.443403 -0.78455,3.980319 -0.45059,0.945885 -1.08014,2.017447 -1.39901,2.381249 l -0.57976,0.661459 0.50656,-1.058334 c 0.84916,-1.774142 1.23748,-4.292758 1.22379,-7.937499 -0.018,-4.787523 -0.3292,-5.309484 -4.11938,-6.908846 -1.21936,-0.514525 -4.52768,-1.827861 -7.35186,-2.9185243 -2.82418,-1.090664 -5.62215,-2.205057 -6.21771,-2.476429 -1.86094,-0.847953 -11.18989,-4.4972423 -11.49663,-4.4972423 -0.47021,0 -0.65356,1.267528 -0.30505,2.1089046 0.34204,0.8257507 1.04311,1.3939577 2.11988,1.7181297 3.19914,0.963128 15.9209,6.2271323 15.04939,6.2271323 -0.62847,0 -10.22235,-3.3615003 -13.32156,-4.6676063 -2.42448,-1.021748 -2.78616,-1.073737 -2.78616,-0.400484 0,0.681001 0.66835,1.206372 2.51354,1.97582 2.78506,1.1613763 5.8309,2.4916993 7.01783,3.0651623 0.63324,0.305951 1.29301,0.556274 1.46614,0.556274 0.17313,0 0.47818,0.200886 0.6779,0.446414 0.32329,0.39744 0.30508,0.422556 -0.16604,0.228944 -0.29104,-0.119607 -1.00541,-0.381643 -1.5875,-0.582302 -0.58208,-0.200659 -1.37436,-0.541809 -1.76061,-0.758112 -0.38626,-0.216302 -0.88262,-0.393277 -1.10304,-0.393277 -0.22041,0 -0.73783,-0.17131 -1.1498,-0.380688 -0.41198,-0.209378 -1.166,-0.558138 -1.67561,-0.775022 -0.50961,-0.216884 -1.49187,-0.6366563 -2.18281,-0.9328263 -0.69094,-0.29617 -1.25625,-0.661785 -1.25625,-0.812478 0,-0.460339 -0.79984,-0.304481 -0.9701,0.189035 -0.25489,0.738836 -1.86283,4.0602713 -2.57778,5.3247813 -1.14417,2.023664 -2.54733,5.644179 -2.52112,6.505166 0.0108,0.354876 0.20682,0.132132 0.57318,-0.651301 3.08173,-6.590113 3.63643,-7.556869 4.37213,-7.620031 0.8386,-0.072 2.87436,0.888706 3.09354,1.459885 0.23108,0.602187 -0.0603,0.853028 -1.20294,1.035752 -0.77499,0.123926 -1.14953,0.352221 -1.41189,0.860594 -0.31825,0.616703 -1.47169,5.413757 -1.47169,6.12067 0,0.153231 0.50602,0.495031 1.12448,0.759557 1.00222,0.428664 8.22338,2.671556 11.70506,3.635592 2.06238,0.571048 4.97622,1.453395 5.559,1.683338 0.49586,0.195643 6.40732,2.07926 7.27605,2.318423 0.23181,0.06382 0.15095,-0.108807 -0.19442,-0.415058 -0.32521,-0.288376 -1.39677,-0.757501 -2.38125,-1.042499 -0.98448,-0.284999 -2.9548,-0.850744 -4.3785,-1.257213 -1.4237,-0.406468 -2.65112,-0.840278 -2.7276,-0.964022 -0.0765,-0.123744 -0.37015,-0.224989 -0.6526,-0.224989 -0.28245,0 -0.51355,-0.127085 -0.51355,-0.282413 0,-0.155327 0.20836,-0.222508 0.46302,-0.149292 0.25466,0.07322 1.83224,0.503042 3.50573,0.955167 1.67349,0.452125 3.45943,0.941744 3.96875,1.088042 2.00241,0.575173 3.68638,0.702944 4.39808,0.333707 0.37922,-0.196741 0.73541,-0.357711 0.79154,-0.357711 0.29232,0 0.026,0.78283 -0.55941,1.644336 -0.36381,0.535383 -0.66146,1.034091 -0.66146,1.108241 0,0.131287 3.37429,1.237409 4.82607,1.582025 l 0.72503,0.172105 -0.16654,-2.346301 c -0.21982,-3.096789 -0.0345,-3.904975 1.25264,-5.462587 0.86698,-1.049163 1.0506,-1.452032 0.93203,-2.044904 -0.12717,-0.635847 -0.0637,-0.738331 0.45734,-0.738331 0.74283,0 3.80825,0.79299 7.84843,2.030301 1.67349,0.512509 5.72161,1.700138 8.99583,2.639176 7.09993,2.036241 10.58115,3.190569 11.08977,3.677227 0.30579,0.292576 0.31226,0.432565 0.0354,0.766141 -0.51098,0.615694 -0.13336,3.101636 0.56152,3.696612 0.48435,0.414716 0.50243,0.514809 0.1556,0.861636 -0.21583,0.215826 -0.86517,0.455822 -1.44299,0.533324 -0.99308,0.1332 -1.09613,0.07898 -1.88272,-0.990616 -0.45767,-0.622341 -1.22168,-2.121312 -1.6978,-3.331048 -1.00403,-2.551091 -0.65751,-2.336078 -5.89275,-3.656435 -2.03729,-0.513817 -4.29948,-1.10718 -5.02708,-1.318585 -0.7276,-0.211404 -2.33495,-0.675367 -3.57187,-1.031028 -1.23693,-0.355661 -3.1869,-0.956698 -4.33326,-1.335639 -1.14636,-0.378941 -2.25498,-0.688983 -2.4636,-0.688983 -0.45283,0 -0.33605,1.194567 0.4845,4.956304 l 0.53285,2.442761 1.10381,0.291446 c 3.59549,0.949333 8.71833,2.663295 9.4382,3.157761 0.79898,0.548814 2.55584,1.132146 5.52069,1.833034 2.41552,0.571029 5.15318,1.327154 8.23764,2.275184 1.0914,0.335452 4.06797,1.226057 6.61458,1.979124 8.87507,2.624472 9.78959,2.935137 9.78959,3.325556 0,0.206981 -0.17922,0.37633 -0.39827,0.37633 -0.21905,0 -2.80866,-0.705943 -5.75469,-1.568762 -9.40823,-2.755437 -11.5575,-3.371156 -18.98246,-5.438083 -4.00182,-1.114009 -8.97712,-2.508923 -11.05621,-3.09981 -2.07908,-0.590887 -3.82614,-1.028356 -3.88234,-0.972153 -0.0562,0.0562 -0.0191,0.508549 0.0825,1.005213 0.17013,0.831839 0.32433,0.951413 1.95603,1.516797 0.97424,0.337573 2.81678,0.795365 4.09454,1.017315 1.27775,0.22195 3.09709,0.688605 4.04298,1.037009 0.94588,0.348405 8.0301,2.704519 15.74271,5.235809 12.54815,4.118325 14.03181,4.663461 14.10746,5.183463 0.11765,0.808639 -0.36399,0.750593 -5.24392,-0.631979 z M 116.1799,17.6264 c 0.57269,-1.421255 1.25345,-3.11988 1.51281,-3.774724 0.25936,-0.654844 1.14683,-2.8575 1.97215,-4.8947913 1.02897,-2.539963 1.47655,-3.989042 1.42407,-4.6105577 -0.0754,-0.8933938 -0.081,-0.8971877 -0.38712,-0.2645833 -0.17083,0.3529942 -0.80401,1.891964 -1.40707,3.419932 -0.60307,1.527969 -1.25159,3.1353133 -1.44116,3.5718753 -0.18958,0.436562 -0.65772,1.656953 -1.04032,2.711979 -0.38261,1.055026 -0.9933,2.724427 -1.3571,3.709779 -0.61309,1.660524 -0.88873,3.286417 -0.48948,2.887167 0.0946,-0.09459 0.64054,-1.334821 1.21322,-2.756076 z M 52.566652,1.8792805 c 0.79658,-2.05039528 1.31355,-3.7989887 1.76512,-5.9704227 0.91361,-4.393193 0.27173,-4.184061 -1.24101,0.404336 -1.38821,4.21068332 -2.04662,6.6163972 -1.86149,6.8015274 0.41986,0.4198617 0.8479,0.024445 1.33738,-1.2354407 z m -2.0657,-11.4342527 c 0,-0.5570298 -1.00615,-2.0296078 -1.442,-2.1104828 -3.58552,-0.665318 -5.44016,-0.828543 -5.43327,-0.478181 0.002,0.109141 1.40113,0.752146 3.10886,1.428899 2.99052,1.1851148 3.76641,1.4240278 3.76641,1.1597648 z m -7.33715,-2.9606508 c -0.17914,-0.07248 -0.53632,-0.07689 -0.79375,-0.0098 -0.25744,0.06708 -0.11087,0.126382 0.32569,0.131774 0.43656,0.0054 0.64719,-0.04949 0.46806,-0.12197 z m 6.53978,-1.744679 c -0.005,-2.685419 -0.1538,-3.108854 -1.09212,-3.108854 -0.5825,0 -0.83214,0.164897 -1.02748,0.678682 -0.3615,0.950832 -0.32134,2.573187 0.0772,3.118223 0.31626,0.432509 1.41313,1.14744 1.84758,1.204236 0.10914,0.01427 0.19681,-0.837261 0.19482,-1.892287 z m 60.445698,54.139873 c -0.51255,-0.527782 -0.87162,-1.019883 -0.79795,-1.093558 0.11765,-0.117651 2.79754,1.774519 2.79754,1.975239 0,0.04286 -0.24023,0.07792 -0.53385,0.07792 -0.29361,0 -0.95319,-0.431821 -1.46574,-0.959604 z m 0.60116,-1.207163 c -0.45215,-0.32937 -0.95587,-0.478643 -1.30609,-0.387056 -0.36751,0.09611 -1.23405,-0.19932 -2.43852,-0.83136 -1.62954,-0.85509 -1.77764,-0.990929 -1.15839,-1.062466 0.39052,-0.04511 1.06922,0.103714 1.50822,0.330729 0.439,0.227014 0.98743,0.412754 1.21873,0.412754 0.90733,0 3.37476,1.610829 3.01638,1.969204 -0.0574,0.05738 -0.43553,-0.136929 -0.84033,-0.431805 z m 65.2953,-5.079531 c -0.7276,-0.344601 -1.8587,-1.028047 -2.51354,-1.51877 -0.65485,-0.490723 -1.60735,-1.107518 -2.11667,-1.370656 l -0.92604,-0.478434 1.30358,0.149059 c 0.71697,0.08198 1.49087,0.31296 1.71979,0.513284 0.22892,0.200324 0.71387,0.453038 1.07767,0.561586 0.78051,0.232882 2.84382,1.373252 3.51198,1.941038 0.36302,0.308483 0.39298,0.447198 0.1323,0.61264 -0.50361,0.319613 -0.74412,0.274594 -2.18907,-0.409747 z m -7.86961,-0.891522 c -1.47923,-0.3748 -1.81626,-0.833768 -0.64759,-0.881875 0.38891,-0.01601 0.27492,-0.104166 -0.34634,-0.267853 -7.08486,-1.866696 -8.12475,-2.272703 -7.47786,-2.919591 0.22916,-0.229162 0.48864,-0.229658 1.04699,-0.002 0.40828,0.166467 1.27811,0.413373 1.93295,0.548681 3.22163,0.66567 4.99441,1.104511 6.01348,1.488591 0.61527,0.231895 1.36512,0.34341 1.66632,0.247811 0.5368,-0.170371 0.53926,-0.153721 0.12429,0.840227 -0.23285,0.557723 -0.50644,1.085368 -0.60799,1.172543 -0.10155,0.08718 -0.86846,-0.01476 -1.70425,-0.22653 z m -33.40539,-7.100602 c -0.83706,-0.36712 -0.45508,-0.445909 0.65879,-0.135884 0.36234,0.10085 0.54093,0.251009 0.39688,0.333687 -0.14406,0.08268 -0.61911,-0.0063 -1.05567,-0.197803 z m -3.09232,-1.081901 c 0.191,-0.07643 0.4192,-0.06703 0.50712,0.02089 0.0879,0.08792 -0.0683,0.150453 -0.34727,0.138964 -0.30822,-0.0127 -0.37091,-0.07539 -0.15985,-0.159852 z m -3.70729,-4.780197 c -0.32659,-0.378669 -1.0056,-2.954302 -1.0056,-3.81444 0,-0.380698 0.74702,-0.241147 1.64725,0.307722 0.47646,0.290498 1.1699,0.528623 1.54098,0.529166 0.91379,0.0013 1.30969,0.462782 1.30969,1.526509 0,1.51612 -0.37847,1.914064 -1.82039,1.914064 -0.88348,0 -1.3947,-0.141575 -1.67193,-0.463021 z m 2.43399,-6.602227 c -0.65485,-0.21117 -1.42875,-0.484552 -1.7198,-0.607515 -0.29104,-0.122963 -0.82682,-0.289895 -1.19062,-0.37096 -0.84228,-0.187681 -2.49015,-1.195989 -2.28685,-1.399288 0.0847,-0.08474 0.72325,0.08998 1.4189,0.388272 0.69565,0.298293 1.71262,0.625667 2.25993,0.727497 0.54731,0.101831 1.06036,0.290712 1.1401,0.419736 0.0797,0.129024 0.37608,0.234589 0.65853,0.234589 0.28246,0 0.51356,0.119063 0.51356,0.264584 0,0.14552 0.23812,0.264583 0.52916,0.264583 0.29104,0 0.52917,0.119062 0.52917,0.264583 0,0.332267 -0.3554,0.29656 -1.85208,-0.186081 z M 33.038452,-4.6075412 c -1.03827,-0.153531 -4.08883,-1.073118 -7.40834,-2.233228 -1.67349,-0.584856 -5.80901,-1.976669 -9.19005,-3.092917 -3.38105,-1.1162488 -6.27869,-2.1608758 -6.4392,-2.3213938 -0.6393297,-0.639322 0.29945,-0.503337 3.45842,0.500964 1.81901,0.578301 4.55745,1.445564 6.08542,1.9272498 10.60098,3.341921 13.93451,4.454195 14.24674,4.753603 0.43235,0.414594 0.13692,0.597315 -0.75299,0.465722 z"
       id="path1" /></g></svg>
